<?xml version="1.0" encoding="UTF-8" standalone="no"?>
<!DOCTYPE svg PUBLIC "-//W3C//DTD SVG 1.1//EN" "http://www.w3.org/Graphics/SVG/1.1/DTD/svg11.dtd">
<svg width="100%" height="100%" viewBox="0 0 2056 3090" version="1.1" xmlns="http://www.w3.org/2000/svg" xmlns:xlink="http://www.w3.org/1999/xlink" xml:space="preserve" xmlns:serif="http://www.serif.com/" style="fill-rule:evenodd;clip-rule:evenodd;stroke-linecap:round;stroke-linejoin:round;stroke-miterlimit:1.5;">
    <g id="Artboard1" transform="matrix(1,0,0,0.751508,0,0)">
        <rect x="0" y="0" width="2055.56" height="4111.11"/>
        <g id="Stun4" transform="matrix(1,0,0,1.33066,-7.43869,-1849.75)">
            <g transform="matrix(1,0,0,1,-15.6381,0)">
                <path d="M389.277,1430.09L430.97,1558.41L540.123,1479.1L498.43,1607.42L633.351,1607.42L524.198,1686.73L633.351,1766.03L498.43,1766.03L540.123,1894.35L430.97,1815.04L389.277,1943.36L347.584,1815.04L238.431,1894.35L280.124,1766.03L145.203,1766.03L254.356,1686.73L145.203,1607.42L280.124,1607.42L238.431,1479.1L347.584,1558.41L389.277,1430.09Z" style="fill:white;"/>
            </g>
            <g transform="matrix(1,0,-1.11022e-16,1,-31.276,-731.47)">
                <circle cx="404.915" cy="2423.41" r="78.975"/>
            </g>
            <g transform="matrix(0.979112,-0.203319,0.203319,0.979112,-339.182,112.281)">
                <path d="M376.879,1601.74C560.943,1601.74 710.38,1641.74 710.38,1691C710.38,1740.27 560.943,1780.27 376.879,1780.27C192.815,1780.27 43.378,1740.27 43.378,1691C43.378,1641.74 192.815,1601.74 376.879,1601.74ZM376.879,1624.05C514.927,1624.05 627.005,1654.05 627.005,1691C627.005,1727.95 514.927,1757.95 376.879,1757.95C238.831,1757.95 126.753,1727.95 126.753,1691C126.753,1654.05 238.831,1624.05 376.879,1624.05Z" style="fill:white;stroke:black;stroke-width:9.12px;"/>
            </g>
            <g transform="matrix(0.497266,-0.267325,0.281938,0.524449,-416.941,783.459)">
                <path d="M170.747,1698.37L188.259,1750.3L244.93,1750.3L199.082,1782.39L216.594,1834.33L170.747,1802.23L124.9,1834.33L142.412,1782.39L96.564,1750.3L153.235,1750.3L170.747,1698.37Z" style="fill:white;stroke:black;stroke-width:7.6px;"/>
            </g>
            <g transform="matrix(1,0,0,1,-15.6381,0)">
                <path d="M389.277,1430.09L430.97,1558.41L540.123,1479.1L498.43,1607.42L633.351,1607.42L524.198,1686.73L254.356,1686.73L145.203,1607.42L280.124,1607.42L238.431,1479.1L347.584,1558.41L389.277,1430.09Z" style="fill:white;"/>
            </g>
            <g transform="matrix(1,0,-1.11022e-16,1,-31.276,-731.47)">
                <path d="M404.915,2344.44C448.502,2344.44 483.89,2379.83 483.89,2423.41C483.89,2467 325.94,2467 325.94,2423.41C325.94,2379.83 361.327,2344.44 404.915,2344.44Z"/>
            </g>
            <g transform="matrix(1.01578,0,0,0.980611,4.68716,144.248)">
                <path d="M207.31,1561.87L98.434,1475.74" style="fill:none;stroke:black;stroke-width:9.14px;"/>
            </g>
            <g transform="matrix(0.263171,-0.833778,0.746111,0.2355,-596.349,1410.93)">
                <path d="M207.31,1561.87L98.434,1475.74" style="fill:none;stroke:black;stroke-width:10.99px;"/>
            </g>
            <g transform="matrix(-0.156294,-0.883013,0.602547,-0.106651,-384.53,1846.21)">
                <path d="M207.31,1561.87L98.434,1475.74" style="fill:none;stroke:black;stroke-width:11.88px;"/>
            </g>
            <g transform="matrix(0.795587,-0.585008,0.562321,0.764733,-419.656,531.858)">
                <path d="M207.31,1561.87L98.434,1475.74" style="fill:none;stroke:black;stroke-width:9.42px;"/>
            </g>
            <g transform="matrix(0.869385,-0.494135,0.494135,0.869385,-866.901,483.767)">
                <path d="M648.905,1681.3L663.954,1732.67L712.655,1732.67L673.255,1764.42L688.305,1815.79L648.905,1784.04L609.504,1815.79L624.554,1764.42L585.154,1732.67L633.855,1732.67L648.905,1681.3Z" style="fill:white;stroke:black;stroke-width:9.12px;"/>
            </g>
            <g transform="matrix(0.999986,-0.00531891,0.00531891,0.999986,49.2365,2.27186)">
                <path d="M170.747,1698.37L188.259,1750.3L244.93,1750.3L199.082,1782.39L216.594,1834.33L170.747,1802.23L124.9,1834.33L142.412,1782.39L96.564,1750.3L153.235,1750.3L170.747,1698.37Z" style="fill:white;stroke:black;stroke-width:9.12px;"/>
            </g>
        </g>
        <g id="Stun2" transform="matrix(1,0,0,1.33066,-5.45504,-1039.83)">
            <g transform="matrix(0.826994,0.138534,-0.165213,0.986258,293.905,622.85)">
                <path d="M193.443,781.062L422.843,781.062L319.261,971.988L474.914,971.988L386.44,1095.97L502.111,1095.97L236.798,1301.77L336.13,1159.62L224.916,1159.62L278.365,1043.08L118.238,1043.08L193.443,781.062Z" style="fill:white;stroke:black;stroke-width:8.86px;"/>
            </g>
            <g transform="matrix(0.979112,-0.203319,0.203319,0.979112,-339.182,112.281)">
                <path d="M376.879,1601.74C560.943,1601.74 710.38,1641.74 710.38,1691C710.38,1740.27 560.943,1780.27 376.879,1780.27C192.815,1780.27 43.378,1740.27 43.378,1691C43.378,1641.74 192.815,1601.74 376.879,1601.74ZM376.879,1624.05C514.927,1624.05 627.005,1654.05 627.005,1691C627.005,1727.95 514.927,1757.95 376.879,1757.95C238.831,1757.95 126.753,1727.95 126.753,1691C126.753,1654.05 238.831,1624.05 376.879,1624.05Z" style="fill:white;stroke:black;stroke-width:9.12px;"/>
            </g>
            <g transform="matrix(0.497266,-0.267325,0.281938,0.524449,-416.941,783.459)">
                <path d="M170.747,1698.37L188.259,1750.3L244.93,1750.3L199.082,1782.39L216.594,1834.33L170.747,1802.23L124.9,1834.33L142.412,1782.39L96.564,1750.3L153.235,1750.3L170.747,1698.37Z" style="fill:white;stroke:black;stroke-width:7.6px;"/>
            </g>
            <g transform="matrix(0.826994,0.138534,-0.165213,0.986258,293.905,622.85)">
                <clipPath id="_clip1">
                    <rect x="118.238" y="781.062" width="383.873" height="262.833"/>
                </clipPath>
                <g clip-path="url(#_clip1)">
                    <path d="M193.443,781.062L422.843,781.062L319.261,971.988L474.914,971.988L386.44,1095.97L502.111,1095.97L236.798,1301.77L336.13,1159.62L224.916,1159.62L278.365,1043.08L118.238,1043.08L193.443,781.062Z" style="fill:white;stroke:black;stroke-width:8.86px;"/>
                </g>
            </g>
            <g transform="matrix(0.869385,-0.494135,0.494135,0.869385,-866.901,483.767)">
                <path d="M648.905,1681.3L663.954,1732.67L712.655,1732.67L673.255,1764.42L688.305,1815.79L648.905,1784.04L609.504,1815.79L624.554,1764.42L585.154,1732.67L633.855,1732.67L648.905,1681.3Z" style="fill:white;stroke:black;stroke-width:9.12px;"/>
            </g>
            <g transform="matrix(0.999986,-0.00531891,0.00531891,0.999986,49.2365,2.27186)">
                <path d="M170.747,1698.37L188.259,1750.3L244.93,1750.3L199.082,1782.39L216.594,1834.33L170.747,1802.23L124.9,1834.33L142.412,1782.39L96.564,1750.3L153.235,1750.3L170.747,1698.37Z" style="fill:white;stroke:black;stroke-width:9.12px;"/>
            </g>
        </g>
        <g id="Armor-Penetration1" serif:id="Armor Penetration1" transform="matrix(1,0,0,0.796592,83.5301,-1794.41)">
            <g transform="matrix(1.63559,1.34706e-31,4.03205e-32,2.73216,-1075.94,1738.95)">
                <path d="M1565.49,452.645C1562.77,452.287 1560.01,452.287 1557.29,452.645L1560.32,478.545C1559.8,478.651 1559.3,478.834 1558.83,479.087L1544.51,457.297C1542.19,458.772 1540.08,460.544 1538.23,462.568L1557.2,480.459C1556.87,480.875 1556.6,481.337 1556.41,481.83L1531.43,474.346C1530.6,476.964 1530.12,479.68 1530,482.423L1556.04,483.933C1556.05,484.464 1556.14,484.989 1556.31,485.492L1532.37,495.815C1533.41,498.352 1534.79,500.74 1536.47,502.918L1557.38,487.341C1557.73,487.739 1558.14,488.082 1558.59,488.359L1546.88,511.66C1549.32,512.927 1551.91,513.87 1554.59,514.465L1560.6,489.089C1561.12,489.168 1561.66,489.168 1562.18,489.089L1568.19,514.465C1570.87,513.87 1573.46,512.927 1575.9,511.66L1564.19,488.359C1564.64,488.082 1565.05,487.739 1565.4,487.341L1586.31,502.918C1587.99,500.74 1589.36,498.352 1590.41,495.815L1566.47,485.492C1566.64,484.989 1566.73,484.464 1566.74,483.933L1592.78,482.423C1592.66,479.68 1592.18,476.964 1591.35,474.346L1566.37,481.83C1566.18,481.337 1565.91,480.875 1565.58,480.459L1584.55,462.568C1582.7,460.544 1580.59,458.772 1578.27,457.297L1563.94,479.087C1563.48,478.834 1562.98,478.651 1562.46,478.545L1565.49,452.645Z" style="fill:white;"/>
            </g>
            <g transform="matrix(1,8.2359e-32,2.46519e-32,1.67044,-83.5301,2252.61)">
                <path d="M1563.39,470.122L1727.73,305.784L1738.91,316.962L1574.76,481.111C1574.91,481.903 1574.98,482.72 1574.98,483.555C1574.98,491.049 1568.9,497.133 1561.4,497.133C1553.91,497.133 1547.83,491.049 1547.83,483.555C1547.83,476.06 1553.91,469.976 1561.4,469.976C1562.08,469.976 1562.74,470.026 1563.39,470.122Z" style="fill:white;stroke:black;stroke-width:7.24px;"/>
            </g>
            <g transform="matrix(0.610526,-1.85456e-16,-5.55112e-17,1.46673,873.95,619.568)">
                <path d="M1441.36,1272.44L1097.67,1272.44L1097.67,1653.68L1239.55,1754.7L1295.64,1759.57L1441.36,1653.68L1441.36,1272.44Z" style="fill:white;stroke:black;stroke-width:10.82px;"/>
            </g>
            <g transform="matrix(0.610526,-1.85456e-16,-5.55112e-17,1.46673,873.95,619.568)">
                <path d="M1441.36,1272.44L1146.91,1272.44L1146.91,1653.68L1295.64,1759.57L1441.36,1653.68L1441.36,1272.44Z" style="fill:white;stroke:black;stroke-width:10.82px;"/>
            </g>
            <g transform="matrix(0.707107,-1.18118,0.707107,1.18118,319.745,4372.22)">
                <path d="M1881.12,255.511L1633.18,255.511C1627.01,261.027 1627.8,266.265 1633.18,271.319L1881.12,271.319L1881.12,255.511Z" style="fill:white;stroke:black;stroke-width:7.24px;"/>
            </g>
            <g transform="matrix(1,0,0,1.67044,-83.5301,2248.44)">
                <path d="M1743.61,121.368L1743.48,290.034" style="fill:none;stroke:black;stroke-width:10.79px;"/>
            </g>
        </g>
        <g id="Bullet1" transform="matrix(2.6346,0,0,2.6346,-2011.08,-596.353)">
            <g transform="matrix(1,0,0,1.33066,821.23,79.1867)">
                <rect x="297.203" y="332.492" width="33.285" height="17.342" style="fill:white;fill-rule:nonzero;"/>
            </g>
            <g transform="matrix(1,0,0,1.33066,821.23,79.1867)">
                <path d="M324.982,204.899L302.708,204.899C302.718,186.875 305.63,168.943 311.351,151.601L312.93,146.819C313.223,145.937 314.473,145.937 314.765,146.819L316.344,151.601C319.21,160.29 321.368,169.123 322.814,178.042C324.249,186.932 324.977,195.903 324.982,204.899" style="fill:white;fill-rule:nonzero;"/>
            </g>
            <g transform="matrix(1,0,0,1.14248,821.23,122.588)">
                <path d="M327.15,204.13L327.15,230.489L326.725,230.638L300.97,230.638L300.545,230.489L300.545,204.13L302.708,204.13L302.708,204.228L324.982,204.228L324.982,204.13L327.15,204.13Z" style="fill:white;fill-rule:nonzero;"/>
            </g>
            <g transform="matrix(4.1561,0,0,1.3372,-104.897,76.9832)">
                <path d="M303.253,248.201L303.253,336.963L302.348,336.963L294.344,336.963L293.44,336.963L293.44,248.201L303.253,248.201Z" style="fill:white;fill-rule:nonzero;"/>
            </g>
            <g transform="matrix(1,0,0,1.33066,821.23,79.1867)">
                <path d="M327.15,229.72L334.25,248.2L293.44,248.2L300.545,229.72L300.97,229.868L326.725,229.868L327.15,229.72Z" style="fill:white;fill-rule:nonzero;"/>
            </g>
            <g transform="matrix(1,0,0,1.33066,821.23,79.1867)">
                <path d="M330.487,353.843L297.202,353.843C295.079,353.843 293.357,352.122 293.357,349.998C293.357,347.875 295.079,346.153 297.202,346.153L330.487,346.153C332.61,346.153 334.332,347.875 334.332,349.998C334.332,352.122 332.61,353.843 330.487,353.843" style="fill:white;fill-rule:nonzero;"/>
            </g>
        </g>
        <g id="Bullet11" serif:id="Bullet1" transform="matrix(2.6346,0,0,2.6346,-2011.08,312.5)">
            <g transform="matrix(1,0,0,1.33066,821.23,79.1867)">
                <rect x="297.203" y="332.492" width="33.285" height="17.342" style="fill:white;fill-rule:nonzero;"/>
            </g>
            <g transform="matrix(1,0,0,1.33066,821.23,79.1867)">
                <path d="M324.982,204.899L302.708,204.899C302.718,186.875 305.63,168.943 311.351,151.601L312.93,146.819C313.223,145.937 314.473,145.937 314.765,146.819L316.344,151.601C319.21,160.29 321.368,169.123 322.814,178.042C324.249,186.932 324.977,195.903 324.982,204.899" style="fill:white;fill-rule:nonzero;"/>
            </g>
            <g transform="matrix(1,0,0,1.14248,821.23,122.588)">
                <path d="M327.15,204.13L327.15,230.489L326.725,230.638L300.97,230.638L300.545,230.489L300.545,204.13L302.708,204.13L302.708,204.228L324.982,204.228L324.982,204.13L327.15,204.13Z" style="fill:white;fill-rule:nonzero;"/>
            </g>
            <g transform="matrix(4.1561,0,0,1.3372,-104.897,76.9832)">
                <path d="M303.253,248.201L303.253,336.963L302.348,336.963L294.344,336.963L293.44,336.963L293.44,248.201L303.253,248.201Z" style="fill:white;fill-rule:nonzero;"/>
            </g>
            <g transform="matrix(1,0,0,1.33066,821.23,79.1867)">
                <path d="M327.15,229.72L334.25,248.2L293.44,248.2L300.545,229.72L300.97,229.868L326.725,229.868L327.15,229.72Z" style="fill:white;fill-rule:nonzero;"/>
            </g>
            <g transform="matrix(1,0,0,1.33066,821.23,79.1867)">
                <path d="M330.487,353.843L297.202,353.843C295.079,353.843 293.357,352.122 293.357,349.998C293.357,347.875 295.079,346.153 297.202,346.153L330.487,346.153C332.61,346.153 334.332,347.875 334.332,349.998C334.332,352.122 332.61,353.843 330.487,353.843" style="fill:white;fill-rule:nonzero;"/>
            </g>
        </g>
        <g id="Bullet12" serif:id="Bullet1" transform="matrix(2.6346,0,0,2.6346,-2011.08,1221.35)">
            <g transform="matrix(1,0,0,1.33066,821.23,79.1867)">
                <rect x="297.203" y="332.492" width="33.285" height="17.342" style="fill:white;fill-rule:nonzero;"/>
            </g>
            <g transform="matrix(1,0,0,1.33066,821.23,79.1867)">
                <path d="M324.982,204.899L302.708,204.899C302.718,186.875 305.63,168.943 311.351,151.601L312.93,146.819C313.223,145.937 314.473,145.937 314.765,146.819L316.344,151.601C319.21,160.29 321.368,169.123 322.814,178.042C324.249,186.932 324.977,195.903 324.982,204.899" style="fill:white;fill-rule:nonzero;"/>
            </g>
            <g transform="matrix(1,0,0,1.14248,821.23,122.588)">
                <path d="M327.15,204.13L327.15,230.489L326.725,230.638L300.97,230.638L300.545,230.489L300.545,204.13L302.708,204.13L302.708,204.228L324.982,204.228L324.982,204.13L327.15,204.13Z" style="fill:white;fill-rule:nonzero;"/>
            </g>
            <g transform="matrix(4.1561,0,0,1.3372,-104.897,76.9832)">
                <path d="M303.253,248.201L303.253,336.963L302.348,336.963L294.344,336.963L293.44,336.963L293.44,248.201L303.253,248.201Z" style="fill:white;fill-rule:nonzero;"/>
            </g>
            <g transform="matrix(1,0,0,1.33066,821.23,79.1867)">
                <path d="M327.15,229.72L334.25,248.2L293.44,248.2L300.545,229.72L300.97,229.868L326.725,229.868L327.15,229.72Z" style="fill:white;fill-rule:nonzero;"/>
            </g>
            <g transform="matrix(1,0,0,1.33066,821.23,79.1867)">
                <path d="M330.487,353.843L297.202,353.843C295.079,353.843 293.357,352.122 293.357,349.998C293.357,347.875 295.079,346.153 297.202,346.153L330.487,346.153C332.61,346.153 334.332,347.875 334.332,349.998C334.332,352.122 332.61,353.843 330.487,353.843" style="fill:white;fill-rule:nonzero;"/>
            </g>
        </g>
        <g id="Bullet13" serif:id="Bullet1" transform="matrix(2.6346,0,0,2.6346,-2011.08,2130.2)">
            <g transform="matrix(1,0,0,1.33066,821.23,79.1867)">
                <rect x="297.203" y="332.492" width="33.285" height="17.342" style="fill:white;fill-rule:nonzero;"/>
            </g>
            <g transform="matrix(1,0,0,1.33066,821.23,79.1867)">
                <path d="M324.982,204.899L302.708,204.899C302.718,186.875 305.63,168.943 311.351,151.601L312.93,146.819C313.223,145.937 314.473,145.937 314.765,146.819L316.344,151.601C319.21,160.29 321.368,169.123 322.814,178.042C324.249,186.932 324.977,195.903 324.982,204.899" style="fill:white;fill-rule:nonzero;"/>
            </g>
            <g transform="matrix(1,0,0,1.14248,821.23,122.588)">
                <path d="M327.15,204.13L327.15,230.489L326.725,230.638L300.97,230.638L300.545,230.489L300.545,204.13L302.708,204.13L302.708,204.228L324.982,204.228L324.982,204.13L327.15,204.13Z" style="fill:white;fill-rule:nonzero;"/>
            </g>
            <g transform="matrix(4.1561,0,0,1.3372,-104.897,76.9832)">
                <path d="M303.253,248.201L303.253,336.963L302.348,336.963L294.344,336.963L293.44,336.963L293.44,248.201L303.253,248.201Z" style="fill:white;fill-rule:nonzero;"/>
            </g>
            <g transform="matrix(1,0,0,1.33066,821.23,79.1867)">
                <path d="M327.15,229.72L334.25,248.2L293.44,248.2L300.545,229.72L300.97,229.868L326.725,229.868L327.15,229.72Z" style="fill:white;fill-rule:nonzero;"/>
            </g>
            <g transform="matrix(1,0,0,1.33066,821.23,79.1867)">
                <path d="M330.487,353.843L297.202,353.843C295.079,353.843 293.357,352.122 293.357,349.998C293.357,347.875 295.079,346.153 297.202,346.153L330.487,346.153C332.61,346.153 334.332,347.875 334.332,349.998C334.332,352.122 332.61,353.843 330.487,353.843" style="fill:white;fill-rule:nonzero;"/>
            </g>
        </g>
        <g id="Bullet2">
            <g transform="matrix(2.87462,0,0,4.23805,482.835,-1058.73)">
                <rect x="255.496" y="420.387" width="34.468" height="6.44" style="fill:white;fill-rule:nonzero;"/>
            </g>
            <g transform="matrix(2.87462,0,0,3.4324,482.835,-766.184)">
                <path d="M254.294,346.942L291.165,346.942C291.165,346.942 288.762,302.896 272.73,302.896C256.697,302.896 254.294,346.942 254.294,346.942Z" style="fill:white;fill-rule:nonzero;"/>
            </g>
            <g transform="matrix(2.87462,0,0,3.82514,482.835,-885.143)">
                <rect x="253.093" y="345.545" width="39.274" height="4.718" style="fill:white;fill-rule:nonzero;"/>
            </g>
            <g transform="matrix(2.87462,0,0,3.82514,482.835,-885.143)">
                <rect x="252.047" y="347.927" width="41.366" height="73.807" style="fill:rgb(255,250,250);fill-rule:nonzero;"/>
            </g>
            <g transform="matrix(2.87462,0,0,3.82514,482.835,-885.143)">
                <rect x="251.71" y="426.827" width="42.039" height="4.99" style="fill:white;fill-rule:nonzero;"/>
            </g>
        </g>
        <g id="Bullet21" serif:id="Bullet2" transform="matrix(1,0,0,1,0,908.852)">
            <g transform="matrix(2.87462,0,0,3.82514,482.835,-885.143)">
                <rect x="255.496" y="420.387" width="34.468" height="6.44" style="fill:white;fill-rule:nonzero;"/>
            </g>
            <g transform="matrix(2.87462,0,0,3.4324,482.835,-766.184)">
                <path d="M254.294,346.942L291.165,346.942C291.165,346.942 288.762,302.896 272.73,302.896C256.697,302.896 254.294,346.942 254.294,346.942Z" style="fill:white;fill-rule:nonzero;"/>
            </g>
            <g transform="matrix(2.87462,0,0,3.82514,482.835,-885.143)">
                <rect x="253.093" y="345.545" width="39.274" height="4.718" style="fill:white;fill-rule:nonzero;"/>
            </g>
            <g transform="matrix(2.87462,0,0,3.82514,482.835,-885.143)">
                <rect x="252.047" y="347.927" width="41.366" height="73.807" style="fill:rgb(255,250,250);fill-rule:nonzero;"/>
            </g>
            <g transform="matrix(2.87462,0,0,3.82514,482.835,-885.143)">
                <rect x="251.71" y="426.827" width="42.039" height="4.99" style="fill:white;fill-rule:nonzero;"/>
            </g>
        </g>
        <g id="Bullet22" serif:id="Bullet2" transform="matrix(1,0,0,1,0,1817.7)">
            <g transform="matrix(2.87462,0,0,4.85743,482.835,-1319.11)">
                <rect x="255.496" y="420.387" width="34.468" height="6.44" style="fill:white;fill-rule:nonzero;"/>
            </g>
            <g transform="matrix(2.87462,0,0,3.4324,482.835,-766.184)">
                <path d="M254.294,346.942L291.165,346.942C291.165,346.942 288.762,302.896 272.73,302.896C256.697,302.896 254.294,346.942 254.294,346.942Z" style="fill:white;fill-rule:nonzero;"/>
            </g>
            <g transform="matrix(2.87462,0,0,3.82514,482.835,-885.143)">
                <rect x="253.093" y="345.545" width="39.274" height="4.718" style="fill:white;fill-rule:nonzero;"/>
            </g>
            <g transform="matrix(2.87462,0,0,3.82514,482.835,-885.143)">
                <rect x="252.047" y="347.927" width="41.366" height="73.807" style="fill:rgb(255,250,250);fill-rule:nonzero;"/>
            </g>
            <g transform="matrix(2.87462,0,0,3.82514,482.835,-885.143)">
                <rect x="251.71" y="426.827" width="42.039" height="4.99" style="fill:white;fill-rule:nonzero;"/>
            </g>
        </g>
        <g id="Bullet23" serif:id="Bullet2" transform="matrix(1,0,0,1,0,2726.56)">
            <g transform="matrix(2.87462,0,0,3.82514,482.835,-885.143)">
                <rect x="255.496" y="420.387" width="34.468" height="6.44" style="fill:white;fill-rule:nonzero;"/>
            </g>
            <g transform="matrix(2.87462,0,0,3.4324,482.835,-766.184)">
                <path d="M254.294,346.942L291.165,346.942C291.165,346.942 288.762,302.896 272.73,302.896C256.697,302.896 254.294,346.942 254.294,346.942Z" style="fill:white;fill-rule:nonzero;"/>
            </g>
            <g transform="matrix(2.87462,0,0,3.82514,482.835,-885.143)">
                <rect x="253.093" y="345.545" width="39.274" height="4.718" style="fill:white;fill-rule:nonzero;"/>
            </g>
            <g transform="matrix(2.87462,0,0,3.82514,482.835,-885.143)">
                <rect x="252.047" y="347.927" width="41.366" height="73.807" style="fill:rgb(255,250,250);fill-rule:nonzero;"/>
            </g>
            <g transform="matrix(2.87462,0,0,3.82514,482.835,-885.143)">
                <rect x="251.71" y="426.827" width="42.039" height="4.99" style="fill:white;fill-rule:nonzero;"/>
            </g>
        </g>
        <g id="Plus" transform="matrix(0.256918,0,0,0.34187,765.084,976.973)">
            <path d="M1191.95,1403.73C1133.73,1403.1 1068.18,1400.23 1009.76,1403.73L1009.79,1532.58L880.94,1532.56C882.311,1596.03 880.104,1661.12 880.94,1714.75L1009.79,1714.72L1009.76,1843.57C1066.43,1847.46 1131.96,1847.46 1191.95,1843.57L1191.93,1714.72L1320.78,1714.75C1323.8,1661.29 1323.57,1595.81 1320.78,1532.56L1191.93,1532.58L1191.95,1403.73Z" style="fill:white;stroke:black;stroke-width:39.17px;"/>
        </g>
        <g id="Plus1" serif:id="Plus" transform="matrix(0.256918,0,0,0.34187,1044.58,976.973)">
            <path d="M1191.95,1403.73C1133.73,1403.1 1068.18,1400.23 1009.76,1403.73L1009.79,1532.58L880.94,1532.56C882.311,1596.03 880.104,1661.12 880.94,1714.75L1009.79,1714.72L1009.76,1843.57C1066.43,1847.46 1131.96,1847.46 1191.95,1843.57L1191.93,1714.72L1320.78,1714.75C1323.8,1661.29 1323.57,1595.81 1320.78,1532.56L1191.93,1532.58L1191.95,1403.73Z" style="fill:white;stroke:black;stroke-width:39.17px;"/>
        </g>
        <g transform="matrix(1.25446,0,0,1.66926,-261.734,-240.666)">
            <path d="M1103.2,503.991L1072.83,503.991L1103.2,551.116L1008.95,551.116L1039.32,503.991L1008.95,503.991L1056.08,430.866L1103.2,503.991Z" style="fill:white;stroke:black;stroke-width:8.02px;"/>
        </g>
        <g transform="matrix(1.33531,0,0,1.77684,-53.5538,-299.954)">
            <path d="M1103.2,503.991L1072.83,503.991L1103.2,551.116L1008.95,551.116L1039.32,503.991L1008.95,503.991L1056.08,430.866L1103.2,503.991Z" style="fill:white;stroke:black;stroke-width:7.54px;"/>
        </g>
        <g transform="matrix(0.276329,0,0,0.367699,880.061,2191.57)">
            <path d="M600.819,582.282L800.847,583.74L513.32,908.955L577.561,659.563L378.133,659.563L663.282,332.261L600.819,582.282Z" style="fill:white;stroke:black;stroke-width:29.6px;"/>
        </g>
        <g transform="matrix(0.926468,0,0,1.23281,367.086,2467.49)">
            <path d="M702.38,776.91C667.282,761.655 664.696,724.561 694.625,684.452C698.865,689.122 699.026,697.903 708.53,698.23C710.23,685.232 700.053,673.214 704.966,659.89C709.555,647.545 716.613,637.31 728.027,626.408C727.839,645.427 736.761,658.121 746.265,670.594C756.466,683.997 767.716,696.762 775.052,712.077C787.49,738.012 779.547,760.325 753.647,772.471C757.676,756.587 759.656,741.227 745.916,727.892C744.052,733.378 743.051,738.199 740.836,742.38C738.578,746.606 737.528,754.2 729.773,750.577C723.507,747.655 721.738,742.1 724.276,735.543C727.374,727.484 733.498,720.496 733.801,708.851C711.49,727.448 686.612,741.996 702.38,776.91Z" style="fill:white;stroke:black;stroke-width:7.81px;stroke-linecap:butt;stroke-miterlimit:1.41421;"/>
        </g>
        <g transform="matrix(0.926468,0,0,1.23281,662.187,2467.49)">
            <path d="M702.38,776.91C667.282,761.655 664.696,724.561 694.625,684.452C698.865,689.122 699.026,697.903 708.53,698.23C710.23,685.232 700.053,673.214 704.966,659.89C709.555,647.545 716.613,637.31 728.027,626.408C727.839,645.427 736.761,658.121 746.265,670.594C756.466,683.997 767.716,696.762 775.052,712.077C787.49,738.012 779.547,760.325 753.647,772.471C757.676,756.587 759.656,741.227 745.916,727.892C744.052,733.378 743.051,738.199 740.836,742.38C738.578,746.606 737.528,754.2 729.773,750.577C723.507,747.655 721.738,742.1 724.276,735.543C727.374,727.484 733.498,720.496 733.801,708.851C711.49,727.448 686.612,741.996 702.38,776.91Z" style="fill:white;stroke:black;stroke-width:7.81px;stroke-linecap:butt;stroke-miterlimit:1.41421;"/>
        </g>
        <g id="Stun21" serif:id="Stun2" transform="matrix(0.830639,0,0,0.59998,-36.0407,1694.26)">
            <g transform="matrix(1,0,0,1.84222,0,0)">
                <path d="M459.473,164.047C633.646,140.292 781.891,171.147 790.314,232.907C798.738,294.667 664.17,364.095 489.997,387.851C315.824,411.606 167.579,380.751 159.156,318.991C150.732,257.231 285.3,187.803 459.473,164.047ZM443.138,175.878C595.739,155.065 725.052,177.91 731.729,226.863C738.406,275.815 619.933,332.457 467.332,353.27C314.731,374.083 185.417,351.238 178.741,302.285C172.064,253.333 290.536,196.692 443.138,175.878Z" style="fill:white;"/>
            </g>
            <g transform="matrix(0.665073,-0.260476,0.150282,1.30224,55.1445,-117.003)">
                <path d="M263.774,383.446C265.805,376.973 272.124,372.53 279.298,372.53C286.472,372.53 292.79,376.973 294.822,383.446C299.551,398.515 303.525,411.178 303.525,411.178C303.525,411.178 308.604,411.178 316.176,411.178C325.968,411.178 334.691,416.997 337.93,425.691C341.17,434.384 338.219,444.054 330.571,449.807C323.443,455.169 318.498,458.888 318.498,458.888C318.498,458.888 320.833,466.328 324.054,476.588C326.618,484.758 323.25,493.548 315.735,498.3C308.221,503.052 298.298,502.666 291.226,497.346C284.176,492.043 279.298,488.374 279.298,488.374C279.298,488.374 272.061,493.817 262.477,501.026C256.077,505.84 247.097,506.19 240.296,501.889C233.495,497.589 230.447,489.634 232.768,482.24C236.868,469.176 240.097,458.888 240.097,458.888C240.097,458.888 232.856,453.441 223.267,446.228C216.327,441.009 213.65,432.234 216.589,424.346C219.529,416.458 227.444,411.178 236.328,411.178C247.142,411.178 255.07,411.178 255.07,411.178C255.07,411.178 259.045,398.515 263.774,383.446Z" style="fill:white;stroke:black;stroke-width:20.13px;"/>
            </g>
            <g transform="matrix(1.17503,0,0,2.39836,-22.781,-1875.3)">
                <path d="M448.856,729.913L492.88,884.203L616.617,811.777L555.139,957.55L686.106,1009.41L555.139,1061.28L616.617,1207.05L492.88,1134.63L448.856,1288.91L404.831,1134.63L281.094,1207.05L342.572,1061.28L211.605,1009.41L342.572,957.55L281.094,811.777L404.831,884.203L448.856,729.913Z" style="fill:white;stroke:black;stroke-width:9.31px;"/>
            </g>
            <g transform="matrix(1.03734,0.610022,-0.333832,1.92658,614.989,-534.877)">
                <path d="M269.647,364.731C270.962,360.541 274.873,357.686 279.298,357.686C283.723,357.686 287.633,360.541 288.948,364.731C295.703,386.255 303.525,411.178 303.525,411.178C303.525,411.178 320.794,411.178 339.122,411.178C345.304,411.178 350.795,415.093 352.766,420.905C354.736,426.717 352.745,433.128 347.82,436.833C332.799,448.131 318.498,458.888 318.498,458.888C318.498,458.888 324.626,478.413 330.718,497.824C332.391,503.153 330.401,508.944 325.794,512.151C321.188,515.357 315.021,515.244 310.537,511.872C294.84,500.064 279.298,488.374 279.298,488.374C279.298,488.374 261.67,501.633 245.001,514.172C240.943,517.224 235.362,517.326 231.193,514.424C227.024,511.523 225.223,506.282 226.736,501.458C233.179,480.931 240.097,458.888 240.097,458.888C240.097,458.888 223.725,446.573 207.616,434.456C203.147,431.094 201.34,425.277 203.128,420.004C204.916,414.73 209.899,411.178 215.508,411.178C235.228,411.178 255.07,411.178 255.07,411.178C255.07,411.178 262.892,386.255 269.647,364.731Z" style="fill:white;stroke:black;stroke-width:17.07px;"/>
            </g>
            <g transform="matrix(0.973552,-0.381291,0.208695,1.80842,-80.9648,-4.53254)">
                <path d="M268.74,367.624C270.178,363.039 274.457,359.916 279.298,359.916C284.139,359.916 288.417,363.039 289.856,367.624C296.384,388.424 303.525,411.178 303.525,411.178C303.525,411.178 318.348,411.178 335.103,411.178C341.866,411.178 347.874,415.46 350.03,421.817C352.185,428.174 350.008,435.187 344.62,439.24C330.831,449.612 318.498,458.888 318.498,458.888C318.498,458.888 323.893,476.075 329.59,494.23C331.42,500.06 329.242,506.394 324.202,509.902C319.162,513.409 312.415,513.285 307.51,509.595C292.902,498.607 279.298,488.374 279.298,488.374C279.298,488.374 263.545,500.223 247.74,512.111C243.301,515.45 237.194,515.563 232.633,512.389C228.072,509.215 226.101,503.482 227.757,498.206C233.888,478.67 240.097,458.888 240.097,458.888C240.097,458.888 225.633,448.009 210.52,436.64C205.63,432.963 203.655,426.6 205.611,420.832C207.567,415.064 213.018,411.178 219.154,411.178C237.601,411.178 255.07,411.178 255.07,411.178C255.07,411.178 262.211,388.424 268.74,367.624Z" style="fill:white;stroke:black;stroke-width:18.67px;"/>
            </g>
            <g transform="matrix(1.20389,0,0,2.21784,-42.5823,-1642.63)">
                <path d="M325.953,1036.46C365.889,1036.46 567.567,1001.19 614.824,972.564" style="fill:none;stroke:black;stroke-width:12.68px;"/>
            </g>
            <g transform="matrix(1.20389,0,0,2.21784,-42.5823,-1642.63)">
                <path d="M330.263,1075.42C361.546,1072.76 479.042,1073.07 624.143,1021.15" style="fill:none;stroke:black;stroke-width:14.56px;"/>
            </g>
            <g transform="matrix(1.19875,-0.204779,0.102911,2.04451,-149.429,-1390.84)">
                <path d="M370.799,1040.64C358.042,1041.28 345.275,1041.45 332.213,1041.29L322.3,1068.78C336.155,1070.32 344.469,1068.94 357.608,1069.49L370.799,1040.64Z" style="fill:white;"/>
            </g>
        </g>
        <g id="Stun3" transform="matrix(1,0,0,1.33066,30.7465,676.546)">
            <g>
                <g transform="matrix(0.379904,0,-5.55112e-17,1,251.847,624.233)">
                    <path d="M193.443,781.062L422.843,781.062L319.261,971.988L474.914,971.988L386.44,1095.97L502.111,1095.97L236.798,1301.77L336.13,1159.62L224.916,1159.62L278.365,1043.08L118.238,1043.08L193.443,781.062Z" style="fill:white;stroke:black;stroke-width:10.81px;"/>
                </g>
                <g transform="matrix(0.218398,0.0788878,-0.251606,0.696562,704.065,867.418)">
                    <path d="M193.443,781.062L422.843,781.062L319.261,971.988L474.914,971.988L386.44,1095.97L502.111,1095.97L236.798,1301.77L336.13,1159.62L224.916,1159.62L278.365,1043.08L118.238,1043.08L193.443,781.062Z" style="fill:white;stroke:black;stroke-width:14.9px;"/>
                </g>
                <g transform="matrix(0.204265,-0.0892082,0.301302,0.689908,-172.345,947.563)">
                    <path d="M193.443,781.062L422.843,781.062L319.261,971.988L474.914,971.988L386.44,1095.97L502.111,1095.97L236.798,1301.77L336.13,1159.62L224.916,1159.62L278.365,1043.08L118.238,1043.08L193.443,781.062Z" style="fill:white;stroke:black;stroke-width:14.73px;"/>
                </g>
            </g>
            <g transform="matrix(0.979112,-0.203319,0.203319,0.979112,-339.182,112.281)">
                <path d="M376.879,1601.74C560.943,1601.74 710.38,1641.74 710.38,1691C710.38,1740.27 560.943,1780.27 376.879,1780.27C192.815,1780.27 43.378,1740.27 43.378,1691C43.378,1641.74 192.815,1601.74 376.879,1601.74ZM376.879,1624.05C514.927,1624.05 627.005,1654.05 627.005,1691C627.005,1727.95 514.927,1757.95 376.879,1757.95C238.831,1757.95 126.753,1727.95 126.753,1691C126.753,1654.05 238.831,1624.05 376.879,1624.05Z" style="fill:white;stroke:black;stroke-width:9.12px;"/>
            </g>
            <g transform="matrix(0.497266,-0.267325,0.281938,0.524449,-416.941,783.459)">
                <path d="M170.747,1698.37L188.259,1750.3L244.93,1750.3L199.082,1782.39L216.594,1834.33L170.747,1802.23L124.9,1834.33L142.412,1782.39L96.564,1750.3L153.235,1750.3L170.747,1698.37Z" style="fill:white;stroke:black;stroke-width:7.6px;"/>
            </g>
            <g>
                <clipPath id="_clip2">
                    <rect x="87.142" y="1405.3" width="530.062" height="290.109"/>
                </clipPath>
                <g clip-path="url(#_clip2)">
                    <g transform="matrix(0.379904,0,-5.55112e-17,1,251.847,624.233)">
                        <path d="M193.443,781.062L422.843,781.062L319.261,971.988L474.914,971.988L386.44,1095.97L502.111,1095.97L236.798,1301.77L336.13,1159.62L224.916,1159.62L278.365,1043.08L118.238,1043.08L193.443,781.062Z" style="fill:white;stroke:black;stroke-width:10.81px;"/>
                    </g>
                    <g transform="matrix(0.218398,0.0788878,-0.251606,0.696562,704.065,867.418)">
                        <path d="M193.443,781.062L422.843,781.062L319.261,971.988L474.914,971.988L386.44,1095.97L502.111,1095.97L236.798,1301.77L336.13,1159.62L224.916,1159.62L278.365,1043.08L118.238,1043.08L193.443,781.062Z" style="fill:white;stroke:black;stroke-width:14.9px;"/>
                    </g>
                    <g transform="matrix(0.204265,-0.0892082,0.301302,0.689908,-172.345,947.563)">
                        <path d="M193.443,781.062L422.843,781.062L319.261,971.988L474.914,971.988L386.44,1095.97L502.111,1095.97L236.798,1301.77L336.13,1159.62L224.916,1159.62L278.365,1043.08L118.238,1043.08L193.443,781.062Z" style="fill:white;stroke:black;stroke-width:14.73px;"/>
                    </g>
                </g>
            </g>
            <g transform="matrix(0.869385,-0.494135,0.494135,0.869385,-866.901,483.767)">
                <path d="M648.905,1681.3L663.954,1732.67L712.655,1732.67L673.255,1764.42L688.305,1815.79L648.905,1784.04L609.504,1815.79L624.554,1764.42L585.154,1732.67L633.855,1732.67L648.905,1681.3Z" style="fill:white;stroke:black;stroke-width:9.12px;"/>
            </g>
            <g transform="matrix(0.999986,-0.00531891,0.00531891,0.999986,49.2365,2.27186)">
                <path d="M170.747,1698.37L188.259,1750.3L244.93,1750.3L199.082,1782.39L216.594,1834.33L170.747,1802.23L124.9,1834.33L142.412,1782.39L96.564,1750.3L153.235,1750.3L170.747,1698.37Z" style="fill:white;stroke:black;stroke-width:9.12px;"/>
            </g>
        </g>
        <g id="Armor-Penetration2" serif:id="Armor Penetration2">
            <g transform="matrix(1.63559,1.07306e-31,4.03205e-32,2.17642,-992.409,531.439)">
                <path d="M1565.49,452.645C1562.77,452.287 1560.01,452.287 1557.29,452.645L1560.32,478.545C1559.8,478.651 1559.3,478.834 1558.83,479.087L1544.51,457.297C1542.19,458.772 1540.08,460.544 1538.23,462.568L1557.2,480.459C1556.87,480.875 1556.6,481.337 1556.41,481.83L1531.43,474.346C1530.6,476.964 1530.12,479.68 1530,482.423L1556.04,483.933C1556.05,484.464 1556.14,484.989 1556.31,485.492L1532.37,495.815C1533.41,498.352 1534.79,500.74 1536.47,502.918L1557.38,487.341C1557.73,487.739 1558.14,488.082 1558.59,488.359L1546.88,511.66C1549.32,512.927 1551.91,513.87 1554.59,514.465L1560.6,489.089C1561.12,489.168 1561.66,489.168 1562.18,489.089L1568.19,514.465C1570.87,513.87 1573.46,512.927 1575.9,511.66L1564.19,488.359C1564.64,488.082 1565.05,487.739 1565.4,487.341L1586.31,502.918C1587.99,500.74 1589.36,498.352 1590.41,495.815L1566.47,485.492C1566.64,484.989 1566.73,484.464 1566.74,483.933L1592.78,482.423C1592.66,479.68 1592.18,476.964 1591.35,474.346L1566.37,481.83C1566.18,481.337 1565.91,480.875 1565.58,480.459L1584.55,462.568C1582.7,460.544 1580.59,458.772 1578.27,457.297L1563.94,479.087C1563.48,478.834 1562.98,478.651 1562.46,478.545L1565.49,452.645Z" style="fill:white;"/>
            </g>
            <g transform="matrix(1,6.56065e-32,2.46519e-32,1.33066,0,940.61)">
                <path d="M1563.39,470.122L1727.73,305.784L1738.91,316.962L1574.76,481.111C1574.91,481.903 1574.98,482.72 1574.98,483.555C1574.98,491.049 1568.9,497.133 1561.4,497.133C1553.91,497.133 1547.83,491.049 1547.83,483.555C1547.83,476.06 1553.91,469.976 1561.4,469.976C1562.08,469.976 1562.74,470.026 1563.39,470.122Z" style="fill:white;stroke:black;stroke-width:7.24px;"/>
            </g>
            <g transform="matrix(1,0,0,1.33066,0,0)">
                <path d="M1858.31,890.637C1858.31,859.808 1833.28,834.778 1802.45,834.778L1690.74,834.778C1659.9,834.778 1634.88,859.808 1634.88,890.637L1634.88,1187.71C1634.88,1218.54 1659.9,1243.57 1690.74,1243.57L1802.45,1243.57C1833.28,1243.57 1858.31,1218.54 1858.31,1187.71L1858.31,890.637Z" style="fill:white;stroke:black;stroke-width:10.79px;"/>
            </g>
            <g transform="matrix(0.863636,0,0,1.33066,253.406,0)">
                <path d="M1858.31,883.02C1858.31,856.395 1833.28,834.778 1802.45,834.778L1690.74,834.778C1659.9,834.778 1634.88,856.395 1634.88,883.02L1634.88,1195.33C1634.88,1221.95 1659.9,1243.57 1690.74,1243.57L1802.45,1243.57C1833.28,1243.57 1858.31,1221.95 1858.31,1195.33L1858.31,883.02Z" style="fill:white;stroke:black;stroke-width:11.55px;"/>
            </g>
            <g transform="matrix(1,0,0,1.33066,0,0)">
                <ellipse cx="1703.43" cy="890.637" rx="15.234" ry="20.313" style="fill:white;stroke:black;stroke-width:6.77px;"/>
            </g>
            <g transform="matrix(1,0,0,1.33066,0,397.452)">
                <ellipse cx="1703.43" cy="890.637" rx="15.234" ry="20.313" style="fill:white;stroke:black;stroke-width:6.77px;"/>
            </g>
            <g transform="matrix(1,0,0,1.33066,115.648,397.452)">
                <ellipse cx="1703.43" cy="890.637" rx="15.234" ry="20.313" style="fill:white;stroke:black;stroke-width:6.77px;"/>
            </g>
            <g transform="matrix(1,0,0,1.33066,114.816,0)">
                <ellipse cx="1703.43" cy="890.637" rx="15.234" ry="20.313" style="fill:white;stroke:black;stroke-width:6.77px;"/>
            </g>
            <g transform="matrix(0.944444,0,0,1.33066,100.246,0)">
                <path d="M1804.43,891.529L1834.39,889.865" style="fill:none;stroke:black;stroke-width:6.96px;"/>
            </g>
            <g transform="matrix(1,0,0,1.33066,0,0)">
                <path d="M1704.59,1171.08L1703.76,1209.35" style="fill:none;stroke:black;stroke-width:6.77px;"/>
            </g>
            <g transform="matrix(1,0,0,1.33066,0,0)">
                <path d="M1692.46,904.729L1714.28,876.377" style="fill:none;stroke:black;stroke-width:6.77px;"/>
            </g>
            <g transform="matrix(0.875,0,0,1.19418,226.386,160.281)">
                <path d="M1811.09,1174.41L1831.06,1206.86" style="fill:none;stroke:black;stroke-width:7.63px;"/>
            </g>
            <g transform="matrix(1,0,0,1.33066,18.2813,918.368)">
                <path d="M1743.61,121.368L1743.48,290.034" style="fill:none;stroke:black;stroke-width:10.79px;"/>
            </g>
            <g transform="matrix(0.707107,-0.940917,0.707107,0.940917,420.541,2606.1)">
                <path d="M1881.12,255.511L1633.18,255.511C1627.01,261.027 1627.8,266.265 1633.18,271.319L1881.12,271.319L1881.12,255.511Z" style="fill:white;stroke:black;stroke-width:7.24px;"/>
            </g>
        </g>
        <g id="Armor-Penetration3" serif:id="Armor Penetration3">
            <g transform="matrix(1.63559,1.07306e-31,4.03205e-32,2.17642,-992.409,1477.45)">
                <path d="M1565.49,452.645C1562.77,452.287 1560.01,452.287 1557.29,452.645L1560.32,478.545C1559.8,478.651 1559.3,478.834 1558.83,479.087L1544.51,457.297C1542.19,458.772 1540.08,460.544 1538.23,462.568L1557.2,480.459C1556.87,480.875 1556.6,481.337 1556.41,481.83L1531.43,474.346C1530.6,476.964 1530.12,479.68 1530,482.423L1556.04,483.933C1556.05,484.464 1556.14,484.989 1556.31,485.492L1532.37,495.815C1533.41,498.352 1534.79,500.74 1536.47,502.918L1557.38,487.341C1557.73,487.739 1558.14,488.082 1558.59,488.359L1546.88,511.66C1549.32,512.927 1551.91,513.87 1554.59,514.465L1560.6,489.089C1561.12,489.168 1561.66,489.168 1562.18,489.089L1568.19,514.465C1570.87,513.87 1573.46,512.927 1575.9,511.66L1564.19,488.359C1564.64,488.082 1565.05,487.739 1565.4,487.341L1586.31,502.918C1587.99,500.74 1589.36,498.352 1590.41,495.815L1566.47,485.492C1566.64,484.989 1566.73,484.464 1566.74,483.933L1592.78,482.423C1592.66,479.68 1592.18,476.964 1591.35,474.346L1566.37,481.83C1566.18,481.337 1565.91,480.875 1565.58,480.459L1584.55,462.568C1582.7,460.544 1580.59,458.772 1578.27,457.297L1563.94,479.087C1563.48,478.834 1562.98,478.651 1562.46,478.545L1565.49,452.645Z" style="fill:white;"/>
            </g>
            <g transform="matrix(1,6.56065e-32,2.46519e-32,1.33066,0,1886.63)">
                <path d="M1563.39,470.122L1727.73,305.784L1738.91,316.962L1574.76,481.111C1574.91,481.903 1574.98,482.72 1574.98,483.555C1574.98,491.049 1568.9,497.133 1561.4,497.133C1553.91,497.133 1547.83,491.049 1547.83,483.555C1547.83,476.06 1553.91,469.976 1561.4,469.976C1562.08,469.976 1562.74,470.026 1563.39,470.122Z" style="fill:white;stroke:black;stroke-width:7.24px;"/>
            </g>
            <g transform="matrix(1,0,0,1.33066,0,0)">
                <rect x="1629.61" y="1537.6" width="233.594" height="406.25" style="fill:white;stroke:black;stroke-width:6.77px;"/>
            </g>
            <g transform="matrix(0.858696,0,0,1.33066,263.279,0)">
                <rect x="1629.61" y="1537.6" width="233.594" height="406.25" style="fill:white;stroke:black;stroke-width:7.26px;"/>
            </g>
            <g transform="matrix(1,0,0,1.33066,0,0)">
                <ellipse cx="1690.26" cy="1576.48" rx="8.32" ry="11.648" style="fill:white;stroke:black;stroke-width:3.94px;"/>
            </g>
            <g transform="matrix(1,0,0,1.33066,145.101,0)">
                <ellipse cx="1690.26" cy="1576.48" rx="8.32" ry="11.648" style="fill:white;stroke:black;stroke-width:3.94px;"/>
            </g>
            <g transform="matrix(1,0,0,1.33066,0,90.3401)">
                <ellipse cx="1690.26" cy="1576.48" rx="8.32" ry="11.648" style="fill:white;stroke:black;stroke-width:3.94px;"/>
            </g>
            <g transform="matrix(1,0,0,1.33066,145.101,90.3401)">
                <ellipse cx="1690.26" cy="1576.48" rx="8.32" ry="11.648" style="fill:white;stroke:black;stroke-width:3.94px;"/>
            </g>
            <g transform="matrix(1,0,0,1.33066,0,178.023)">
                <ellipse cx="1690.26" cy="1576.48" rx="8.32" ry="11.648" style="fill:white;stroke:black;stroke-width:3.94px;"/>
            </g>
            <g transform="matrix(1,0,0,1.33066,145.101,178.023)">
                <ellipse cx="1690.26" cy="1576.48" rx="8.32" ry="11.648" style="fill:white;stroke:black;stroke-width:3.94px;"/>
            </g>
            <g transform="matrix(1,0,0,1.33066,0,265.706)">
                <ellipse cx="1690.26" cy="1576.48" rx="8.32" ry="11.648" style="fill:white;stroke:black;stroke-width:3.94px;"/>
            </g>
            <g transform="matrix(1,0,0,1.33066,145.101,265.706)">
                <ellipse cx="1690.26" cy="1576.48" rx="8.32" ry="11.648" style="fill:white;stroke:black;stroke-width:3.94px;"/>
            </g>
            <g transform="matrix(1,0,0,1.33066,0,353.389)">
                <ellipse cx="1690.26" cy="1576.48" rx="8.32" ry="11.648" style="fill:white;stroke:black;stroke-width:3.94px;"/>
            </g>
            <g transform="matrix(1,0,0,1.33066,145.101,353.389)">
                <ellipse cx="1690.26" cy="1576.48" rx="8.32" ry="11.648" style="fill:white;stroke:black;stroke-width:3.94px;"/>
            </g>
            <g transform="matrix(1,0,0,1.33066,0,441.072)">
                <ellipse cx="1690.26" cy="1576.48" rx="8.32" ry="11.648" style="fill:white;stroke:black;stroke-width:3.94px;"/>
            </g>
            <g transform="matrix(1,0,0,1.33066,145.101,441.072)">
                <ellipse cx="1690.26" cy="1576.48" rx="8.32" ry="11.648" style="fill:white;stroke:black;stroke-width:3.94px;"/>
            </g>
            <g transform="matrix(1,0,0,1.33066,18.2813,1864.38)">
                <path d="M1743.61,121.368L1743.48,290.034" style="fill:none;stroke:black;stroke-width:10.79px;"/>
            </g>
            <g transform="matrix(0.707107,-0.940917,0.707107,0.940917,420.541,3552.11)">
                <path d="M1881.12,255.511L1633.18,255.511C1627.01,261.027 1627.8,266.265 1633.18,271.319L1881.12,271.319L1881.12,255.511Z" style="fill:white;stroke:black;stroke-width:7.24px;"/>
            </g>
        </g>
        <g transform="matrix(2.28725,0,0,3.04355,-1984.18,2006.62)">
            <path d="M1565.49,452.645C1562.77,452.287 1560.01,452.287 1557.29,452.645L1560.32,478.545C1559.8,478.651 1559.3,478.834 1558.83,479.087L1544.51,457.297C1542.19,458.772 1540.08,460.544 1538.23,462.568L1557.2,480.459C1556.87,480.875 1556.6,481.337 1556.41,481.83L1531.43,474.346C1530.6,476.964 1530.12,479.68 1530,482.423L1556.04,483.933C1556.05,484.464 1556.14,484.989 1556.31,485.492L1532.37,495.815C1533.41,498.352 1534.79,500.74 1536.47,502.918L1557.38,487.341C1557.73,487.739 1558.14,488.082 1558.59,488.359L1546.88,511.66C1549.32,512.927 1551.91,513.87 1554.59,514.465L1560.6,489.089C1561.12,489.168 1561.66,489.168 1562.18,489.089L1568.19,514.465C1570.87,513.87 1573.46,512.927 1575.9,511.66L1564.19,488.359C1564.64,488.082 1565.05,487.739 1565.4,487.341L1586.31,502.918C1587.99,500.74 1589.36,498.352 1590.41,495.815L1566.47,485.492C1566.64,484.989 1566.73,484.464 1566.74,483.933L1592.78,482.423C1592.66,479.68 1592.18,476.964 1591.35,474.346L1566.37,481.83C1566.18,481.337 1565.91,480.875 1565.58,480.459L1584.55,462.568C1582.7,460.544 1580.59,458.772 1578.27,457.297L1563.94,479.087C1563.48,478.834 1562.98,478.651 1562.46,478.545L1565.49,452.645Z" style="fill:white;"/>
        </g>
        <g transform="matrix(1.71659,-2.53596e-16,-4.76449e-17,2.28419,-1091.23,2371.67)">
            <path d="M1563.39,470.122L1727.73,305.784L1738.91,316.962L1574.76,481.111C1574.91,481.903 1574.98,482.72 1574.98,483.555C1574.98,491.049 1568.9,497.133 1561.4,497.133C1553.91,497.133 1547.83,491.049 1547.83,483.555C1547.83,476.06 1553.91,469.976 1561.4,469.976C1562.08,469.976 1562.74,470.026 1563.39,470.122Z" style="fill:white;stroke:black;stroke-width:4.22px;"/>
        </g>
        <g transform="matrix(0.606366,0.498702,-0.245118,1.23367,1262.98,-696.181)">
            <path d="M1830.49,2253.61L1893,2283.74L1981.85,2499.53L1959.65,2565.37L1740.1,2655.78L1675.6,2641.83L1576.64,2401.61L1607.2,2345.61L1830.49,2253.61Z" style="fill:white;stroke:black;stroke-width:4.12px;"/>
        </g>
        <g transform="matrix(0.606366,0.498702,-0.245118,1.23367,1290.88,-696.181)">
            <path d="M1830.49,2253.61L1893,2283.74L1981.85,2499.53L1959.65,2565.37L1740.1,2655.78L1675.6,2641.83L1576.64,2401.61L1607.2,2345.61L1830.49,2253.61Z" style="fill:white;stroke:black;stroke-width:4.12px;"/>
        </g>
        <g transform="matrix(0.994809,-0.135408,0.10176,1.32375,-238.621,251.037)">
            <path d="M1780.04,2241.78L1787.05,2318.81L1751.2,2358.62L1763.39,2435.63" style="fill:none;stroke:black;stroke-width:18.33px;"/>
        </g>
        <g transform="matrix(1.0417,0,0,1.16338,-66.3431,2007.89)">
            <ellipse cx="1703.43" cy="890.637" rx="15.234" ry="20.313" style="fill:white;stroke:black;stroke-width:4.1px;"/>
        </g>
        <g transform="matrix(1.0417,0,0,1.16338,-66.3431,2355.38)">
            <ellipse cx="1703.43" cy="890.637" rx="15.234" ry="20.313" style="fill:white;stroke:black;stroke-width:4.1px;"/>
        </g>
        <g transform="matrix(1.0417,0,0,1.16338,54.1281,2355.38)">
            <ellipse cx="1703.43" cy="890.637" rx="15.234" ry="20.313" style="fill:white;stroke:black;stroke-width:4.1px;"/>
        </g>
        <g transform="matrix(1.0417,0,0,1.16338,53.2614,2007.89)">
            <ellipse cx="1703.43" cy="890.637" rx="15.234" ry="20.313" style="fill:white;stroke:black;stroke-width:4.1px;"/>
        </g>
        <g transform="matrix(0.983832,0,0,1.16338,38.084,2007.89)">
            <path d="M1804.43,891.529L1834.39,889.865" style="fill:none;stroke:black;stroke-width:4.23px;"/>
        </g>
        <g transform="matrix(1.0417,0,0,1.16338,-66.3431,2007.89)">
            <path d="M1704.59,1171.08L1703.76,1209.35" style="fill:none;stroke:black;stroke-width:4.1px;"/>
        </g>
        <g transform="matrix(1.0417,0,0,1.16338,-66.3431,2007.89)">
            <path d="M1692.46,904.729L1714.28,876.377" style="fill:none;stroke:black;stroke-width:4.1px;"/>
        </g>
        <g transform="matrix(0.911492,0,0,1.04406,169.484,2148.02)">
            <path d="M1811.09,1174.41L1831.06,1206.86" style="fill:none;stroke:black;stroke-width:4.63px;"/>
        </g>
        <g transform="matrix(0.707107,-0.940917,1.18117,1.57174,295.665,4368.87)">
            <path d="M1881.12,255.511L1633.18,255.511C1627.01,261.027 1627.8,266.265 1633.18,271.319L1881.12,271.319L1881.12,255.511Z" style="fill:white;stroke:black;stroke-width:5.26px;"/>
        </g>
        <g transform="matrix(1,0,0,1.33066,0,0)">
            <text x="140.909px" y="2852.69px" style="font-family:'ArialMT', 'Arial', sans-serif;font-size:137.355px;fill:white;">Stun</text>
        </g>
        <g transform="matrix(1,0,0,1.33066,152.344,67.5725)">
            <text x="766.153px" y="2795.56px" style="font-family:'ArialMT', 'Arial', sans-serif;font-size:88.616px;fill:white;">Damage</text>
            <text x="766.153px" y="2887.08px" style="font-family:'ArialMT', 'Arial', sans-serif;font-size:88.616px;fill:white;">Boost</text>
        </g>
        <g transform="matrix(1,0,0,1.33066,28.5645,76.0191)">
            <text x="1489.79px" y="2767px" style="font-family:'ArialMT', 'Arial', sans-serif;font-size:88.616px;fill:white;">Armor</text>
            <text x="1489.79px" y="2858.51px" style="font-family:'ArialMT', 'Arial', sans-serif;font-size:88.616px;fill:white;">Penetration</text>
        </g>
        <g transform="matrix(1.92037e-17,-0.41732,0.642014,5.23109e-17,1006.69,2696.98)">
            <path d="M444.602,520.94L607.437,520.94L454.964,446.458L607.437,446.458L759.91,520.94L607.437,595.422L454.964,595.422L607.437,520.94L444.602,520.94Z" style="fill:white;stroke:black;stroke-width:13.39px;"/>
        </g>
        <g transform="matrix(1.92037e-17,-0.41732,0.642014,5.23109e-17,1006.69,2601.88)">
            <path d="M607.437,520.94L454.964,446.458L607.437,446.458L759.91,520.94L607.437,595.422L454.964,595.422L607.437,520.94Z" style="fill:white;stroke:black;stroke-width:13.39px;"/>
        </g>
    </g>
</svg>
