<?xml version="1.0" encoding="UTF-8" standalone="no"?>
<!DOCTYPE svg PUBLIC "-//W3C//DTD SVG 1.1//EN" "http://www.w3.org/Graphics/SVG/1.1/DTD/svg11.dtd">
<svg width="100%" height="100%" viewBox="0 0 2056 2056" version="1.1" xmlns="http://www.w3.org/2000/svg" xmlns:xlink="http://www.w3.org/1999/xlink" xml:space="preserve" style="fill-rule:evenodd;clip-rule:evenodd;stroke-linecap:round;stroke-linejoin:round;stroke-miterlimit:1.5;">
    <rect id="Artboard1" x="0" y="0" width="2055.56" height="2055.56"/>
    <clipPath id="_clip1">
        <rect id="Artboard11" x="0" y="0" width="2055.56" height="2055.56"/>
    </clipPath>
    <g clip-path="url(#_clip1)">
        <g id="Stun1" transform="matrix(1,0,0,1,-9.91825,-1281.32)">
            <g transform="matrix(1,0,0,1,-188.447,1013.52)">
                <path d="M600.819,582.282L800.847,583.74L513.32,908.955L577.561,659.563L378.133,659.563L663.282,332.261L600.819,582.282Z" style="fill:white;stroke:black;stroke-width:8.18px;"/>
            </g>
            <g transform="matrix(0.979112,-0.203319,0.203319,0.979112,-339.182,112.281)">
                <path d="M376.879,1601.74C560.943,1601.74 710.38,1641.74 710.38,1691C710.38,1740.27 560.943,1780.27 376.879,1780.27C192.815,1780.27 43.378,1740.27 43.378,1691C43.378,1641.74 192.815,1601.74 376.879,1601.74ZM376.879,1624.05C514.927,1624.05 627.005,1654.05 627.005,1691C627.005,1727.95 514.927,1757.95 376.879,1757.95C238.831,1757.95 126.753,1727.95 126.753,1691C126.753,1654.05 238.831,1624.05 376.879,1624.05Z" style="fill:white;stroke:black;stroke-width:9.12px;"/>
            </g>
            <g transform="matrix(1,0,-1.66533e-16,1,-188.447,1013.52)">
                <clipPath id="_clip2">
                    <rect x="378.133" y="332.261" width="422.714" height="370.891"/>
                </clipPath>
                <g clip-path="url(#_clip2)">
                    <path d="M600.819,582.282L800.847,583.74L513.32,908.955L577.561,659.563L378.133,659.563L663.282,332.261L600.819,582.282Z" style="fill:white;stroke:black;stroke-width:8.18px;"/>
                </g>
            </g>
            <g transform="matrix(0.497266,-0.267325,0.281938,0.524449,-416.941,783.459)">
                <path d="M170.747,1698.37L188.259,1750.3L244.93,1750.3L199.082,1782.39L216.594,1834.33L170.747,1802.23L124.9,1834.33L142.412,1782.39L96.564,1750.3L153.235,1750.3L170.747,1698.37Z" style="fill:white;stroke:black;stroke-width:7.6px;"/>
            </g>
            <g transform="matrix(0.869385,-0.494135,0.494135,0.869385,-866.901,483.767)">
                <path d="M648.905,1681.3L663.954,1732.67L712.655,1732.67L673.255,1764.42L688.305,1815.79L648.905,1784.04L609.504,1815.79L624.554,1764.42L585.154,1732.67L633.855,1732.67L648.905,1681.3Z" style="fill:white;stroke:black;stroke-width:9.12px;"/>
            </g>
            <g transform="matrix(0.999986,-0.00531891,0.00531891,0.999986,49.2365,2.27186)">
                <path d="M170.747,1698.37L188.259,1750.3L244.93,1750.3L199.082,1782.39L216.594,1834.33L170.747,1802.23L124.9,1834.33L142.412,1782.39L96.564,1750.3L153.235,1750.3L170.747,1698.37Z" style="fill:white;stroke:black;stroke-width:9.12px;"/>
            </g>
        </g>
        <g id="Stun2" transform="matrix(1,0,0,1,42.1525,-646.549)">
            <g transform="matrix(0.826994,0.138534,-0.165213,0.986258,293.905,622.85)">
                <path d="M193.443,781.062L422.843,781.062L319.261,971.988L474.914,971.988L386.44,1095.97L502.111,1095.97L236.798,1301.77L336.13,1159.62L224.916,1159.62L278.365,1043.08L118.238,1043.08L193.443,781.062Z" style="fill:white;stroke:black;stroke-width:8.86px;"/>
            </g>
            <g transform="matrix(0.979112,-0.203319,0.203319,0.979112,-339.182,112.281)">
                <path d="M376.879,1601.74C560.943,1601.74 710.38,1641.74 710.38,1691C710.38,1740.27 560.943,1780.27 376.879,1780.27C192.815,1780.27 43.378,1740.27 43.378,1691C43.378,1641.74 192.815,1601.74 376.879,1601.74ZM376.879,1624.05C514.927,1624.05 627.005,1654.05 627.005,1691C627.005,1727.95 514.927,1757.95 376.879,1757.95C238.831,1757.95 126.753,1727.95 126.753,1691C126.753,1654.05 238.831,1624.05 376.879,1624.05Z" style="fill:white;stroke:black;stroke-width:9.12px;"/>
            </g>
            <g transform="matrix(0.497266,-0.267325,0.281938,0.524449,-416.941,783.459)">
                <path d="M170.747,1698.37L188.259,1750.3L244.93,1750.3L199.082,1782.39L216.594,1834.33L170.747,1802.23L124.9,1834.33L142.412,1782.39L96.564,1750.3L153.235,1750.3L170.747,1698.37Z" style="fill:white;stroke:black;stroke-width:7.6px;"/>
            </g>
            <g transform="matrix(0.826994,0.138534,-0.165213,0.986258,293.905,622.85)">
                <clipPath id="_clip3">
                    <rect x="118.238" y="781.062" width="383.873" height="262.833"/>
                </clipPath>
                <g clip-path="url(#_clip3)">
                    <path d="M193.443,781.062L422.843,781.062L319.261,971.988L474.914,971.988L386.44,1095.97L502.111,1095.97L236.798,1301.77L336.13,1159.62L224.916,1159.62L278.365,1043.08L118.238,1043.08L193.443,781.062Z" style="fill:white;stroke:black;stroke-width:8.86px;"/>
                </g>
            </g>
            <g transform="matrix(0.869385,-0.494135,0.494135,0.869385,-866.901,483.767)">
                <path d="M648.905,1681.3L663.954,1732.67L712.655,1732.67L673.255,1764.42L688.305,1815.79L648.905,1784.04L609.504,1815.79L624.554,1764.42L585.154,1732.67L633.855,1732.67L648.905,1681.3Z" style="fill:white;stroke:black;stroke-width:9.12px;"/>
            </g>
            <g transform="matrix(0.999986,-0.00531891,0.00531891,0.999986,49.2365,2.27186)">
                <path d="M170.747,1698.37L188.259,1750.3L244.93,1750.3L199.082,1782.39L216.594,1834.33L170.747,1802.23L124.9,1834.33L142.412,1782.39L96.564,1750.3L153.235,1750.3L170.747,1698.37Z" style="fill:white;stroke:black;stroke-width:9.12px;"/>
            </g>
        </g>
        <g id="Stun3" transform="matrix(1,0,0,1,34.7138,-78.73)">
            <g>
                <g transform="matrix(0.379904,0,-5.55112e-17,1,251.847,624.233)">
                    <path d="M193.443,781.062L422.843,781.062L319.261,971.988L474.914,971.988L386.44,1095.97L502.111,1095.97L236.798,1301.77L336.13,1159.62L224.916,1159.62L278.365,1043.08L118.238,1043.08L193.443,781.062Z" style="fill:white;stroke:black;stroke-width:10.81px;"/>
                </g>
                <g transform="matrix(0.218398,0.0788878,-0.251606,0.696562,704.065,867.418)">
                    <path d="M193.443,781.062L422.843,781.062L319.261,971.988L474.914,971.988L386.44,1095.97L502.111,1095.97L236.798,1301.77L336.13,1159.62L224.916,1159.62L278.365,1043.08L118.238,1043.08L193.443,781.062Z" style="fill:white;stroke:black;stroke-width:14.9px;"/>
                </g>
                <g transform="matrix(0.204265,-0.0892082,0.301302,0.689908,-172.345,947.563)">
                    <path d="M193.443,781.062L422.843,781.062L319.261,971.988L474.914,971.988L386.44,1095.97L502.111,1095.97L236.798,1301.77L336.13,1159.62L224.916,1159.62L278.365,1043.08L118.238,1043.08L193.443,781.062Z" style="fill:white;stroke:black;stroke-width:14.73px;"/>
                </g>
            </g>
            <g transform="matrix(0.979112,-0.203319,0.203319,0.979112,-339.182,112.281)">
                <path d="M376.879,1601.74C560.943,1601.74 710.38,1641.74 710.38,1691C710.38,1740.27 560.943,1780.27 376.879,1780.27C192.815,1780.27 43.378,1740.27 43.378,1691C43.378,1641.74 192.815,1601.74 376.879,1601.74ZM376.879,1624.05C514.927,1624.05 627.005,1654.05 627.005,1691C627.005,1727.95 514.927,1757.95 376.879,1757.95C238.831,1757.95 126.753,1727.95 126.753,1691C126.753,1654.05 238.831,1624.05 376.879,1624.05Z" style="fill:white;stroke:black;stroke-width:9.12px;"/>
            </g>
            <g transform="matrix(0.497266,-0.267325,0.281938,0.524449,-416.941,783.459)">
                <path d="M170.747,1698.37L188.259,1750.3L244.93,1750.3L199.082,1782.39L216.594,1834.33L170.747,1802.23L124.9,1834.33L142.412,1782.39L96.564,1750.3L153.235,1750.3L170.747,1698.37Z" style="fill:white;stroke:black;stroke-width:7.6px;"/>
            </g>
            <g>
                <clipPath id="_clip4">
                    <rect x="87.142" y="1405.3" width="530.062" height="290.109"/>
                </clipPath>
                <g clip-path="url(#_clip4)">
                    <g transform="matrix(0.379904,0,-5.55112e-17,1,251.847,624.233)">
                        <path d="M193.443,781.062L422.843,781.062L319.261,971.988L474.914,971.988L386.44,1095.97L502.111,1095.97L236.798,1301.77L336.13,1159.62L224.916,1159.62L278.365,1043.08L118.238,1043.08L193.443,781.062Z" style="fill:white;stroke:black;stroke-width:10.81px;"/>
                    </g>
                    <g transform="matrix(0.218398,0.0788878,-0.251606,0.696562,704.065,867.418)">
                        <path d="M193.443,781.062L422.843,781.062L319.261,971.988L474.914,971.988L386.44,1095.97L502.111,1095.97L236.798,1301.77L336.13,1159.62L224.916,1159.62L278.365,1043.08L118.238,1043.08L193.443,781.062Z" style="fill:white;stroke:black;stroke-width:14.9px;"/>
                    </g>
                    <g transform="matrix(0.204265,-0.0892082,0.301302,0.689908,-172.345,947.563)">
                        <path d="M193.443,781.062L422.843,781.062L319.261,971.988L474.914,971.988L386.44,1095.97L502.111,1095.97L236.798,1301.77L336.13,1159.62L224.916,1159.62L278.365,1043.08L118.238,1043.08L193.443,781.062Z" style="fill:white;stroke:black;stroke-width:14.73px;"/>
                    </g>
                </g>
            </g>
            <g transform="matrix(0.869385,-0.494135,0.494135,0.869385,-866.901,483.767)">
                <path d="M648.905,1681.3L663.954,1732.67L712.655,1732.67L673.255,1764.42L688.305,1815.79L648.905,1784.04L609.504,1815.79L624.554,1764.42L585.154,1732.67L633.855,1732.67L648.905,1681.3Z" style="fill:white;stroke:black;stroke-width:9.12px;"/>
            </g>
            <g transform="matrix(0.999986,-0.00531891,0.00531891,0.999986,49.2365,2.27186)">
                <path d="M170.747,1698.37L188.259,1750.3L244.93,1750.3L199.082,1782.39L216.594,1834.33L170.747,1802.23L124.9,1834.33L142.412,1782.39L96.564,1750.3L153.235,1750.3L170.747,1698.37Z" style="fill:white;stroke:black;stroke-width:9.12px;"/>
            </g>
        </g>
        <g id="Armor-Penetration1" transform="matrix(1,0,0,0.598645,50.0561,-1334.63)">
            <g transform="matrix(-1.46786,-2.45198,0.673598,-1.12521,2753.3,8812.13)">
                <path d="M1596.36,1552.29L1578.85,1640L1595.5,1658.65L1594.87,1773.92L1602.41,1782.17L1603.04,1658.59L1618.88,1638.77L1596.36,1552.29Z" style="fill:white;stroke:black;stroke-width:4.19px;"/>
            </g>
            <g transform="matrix(0.649254,-1.85456e-16,-2.77556e-16,1.67044,642.343,1106.94)">
                <path d="M1553.44,793.459C1596.18,863.204 1649.84,907.18 1719.58,914.338C1687.63,1050.3 1632.9,1171.6 1553.44,1276.97C1470.02,1165.27 1412.66,1045.04 1387.31,914.338C1456.4,890.014 1511.96,849.929 1553.44,793.459Z" style="fill:white;stroke:black;stroke-width:9.7px;"/>
            </g>
            <g id="crack" transform="matrix(0.361137,-3.34875e-17,-1.20283e-16,0.603258,1038.17,2604.46)">
                <g transform="matrix(0.710083,0,0,0.986222,1143.63,134.396)">
                    <path d="M768.591,223.12L810.687,274.013L839.589,270.243L880.429,339.986L916.243,339.357L921.897,364.489L954.569,372.029L962.109,410.984L999.179,410.984L1019.91,386.48L997.922,395.905L974.047,392.763L972.162,357.578L940.747,346.897L935.72,314.853L895.509,306.057L862.208,240.085L825.138,228.775L803.147,191.705L768.591,223.12Z"/>
                </g>
                <g transform="matrix(0.710083,0,0,0.986222,1143.63,134.396)">
                    <path d="M861.58,292.234L876.031,318.623L823.882,339.986L826.395,392.763L862.837,414.126L867.863,441.771L836.448,470.045L851.527,438.63L844.616,417.896L810.687,402.816L803.147,326.791L861.58,292.234Z"/>
                </g>
            </g>
            <g transform="matrix(1.46786,2.45198,-1.3603,2.2723,1701.54,-5109.61)">
                <path d="M1602.46,1600.44C1600.06,1597.55 1597.55,1597.44 1594.92,1600.44L1594.92,1606.36L1578.26,1590.06L1578.85,1640L1595.5,1658.65L1595.42,1759.52C1597.57,1762.69 1600.04,1763.09 1602.97,1759.52L1603.04,1658.59L1618.88,1638.77L1618.3,1590.21L1602.46,1606.41L1602.46,1600.44Z" style="fill:white;stroke:black;stroke-width:3.38px;"/>
            </g>
        </g>
        <g id="Armor-Penetration2" transform="matrix(1,0,0,0.598645,43.8572,-689.941)">
            <g transform="matrix(-1.46786,-2.45198,0.673598,-1.12521,2753.3,8812.13)">
                <path d="M1596.36,1552.29L1578.85,1640L1595.5,1658.65L1594.87,1773.92L1602.41,1782.17L1603.04,1658.59L1618.88,1638.77L1596.36,1552.29Z" style="fill:white;stroke:black;stroke-width:4.19px;"/>
            </g>
            <g transform="matrix(0.610526,-1.85456e-16,-5.55112e-17,1.46673,873.95,619.568)">
                <path d="M1441.36,1272.44L1097.67,1272.44L1097.67,1653.68L1239.55,1754.7L1295.64,1759.57L1441.36,1653.68L1441.36,1272.44Z" style="fill:white;stroke:black;stroke-width:10.82px;"/>
            </g>
            <g transform="matrix(0.610526,-1.85456e-16,-5.55112e-17,1.46673,873.95,619.568)">
                <path d="M1441.36,1272.44L1146.91,1272.44L1146.91,1653.68L1295.64,1759.57L1441.36,1653.68L1441.36,1272.44Z" style="fill:white;stroke:black;stroke-width:10.82px;"/>
            </g>
            <g id="crack1" transform="matrix(0.361137,-3.34875e-17,-1.20283e-16,0.603258,1038.17,2604.46)">
                <g transform="matrix(0.710083,0,0,0.986222,1143.63,134.396)">
                    <path d="M768.591,223.12L810.687,274.013L839.589,270.243L880.429,339.986L916.243,339.357L921.897,364.489L954.569,372.029L962.109,410.984L999.179,410.984L1019.91,386.48L997.922,395.905L974.047,392.763L972.162,357.578L940.747,346.897L935.72,314.853L895.509,306.057L862.208,240.085L825.138,228.775L803.147,191.705L768.591,223.12Z"/>
                </g>
                <g transform="matrix(0.710083,0,0,0.986222,1143.63,134.396)">
                    <path d="M861.58,292.234L876.031,318.623L823.882,339.986L826.395,392.763L862.837,414.126L867.863,441.771L836.448,470.045L851.527,438.63L844.616,417.896L810.687,402.816L803.147,326.791L861.58,292.234Z"/>
                </g>
            </g>
            <g transform="matrix(1.46786,2.45198,-1.3603,2.2723,1701.54,-5109.61)">
                <path d="M1602.46,1600.44C1600.06,1597.55 1597.55,1597.44 1594.92,1600.44L1594.92,1606.36L1578.26,1590.06L1578.85,1640L1595.5,1658.65L1595.42,1759.52C1597.57,1762.69 1600.04,1763.09 1602.97,1759.52L1603.04,1658.59L1618.88,1638.77L1618.3,1590.21L1602.46,1606.41L1602.46,1600.44Z" style="fill:white;stroke:black;stroke-width:3.38px;"/>
            </g>
        </g>
        <g id="Armor-Penetration3" transform="matrix(1,0,0,0.598645,43.8572,-66.9515)">
            <g transform="matrix(-1.46786,-2.45198,0.673598,-1.12521,2753.3,8812.13)">
                <path d="M1596.36,1552.29L1578.85,1640L1595.5,1658.65L1594.87,1773.92L1602.41,1782.17L1603.04,1658.59L1618.88,1638.77L1596.36,1552.29Z" style="fill:white;stroke:black;stroke-width:4.19px;"/>
            </g>
            <g transform="matrix(-1,-1.85456e-16,2.77556e-16,-1.67044,3260.6,5598.63)">
                <path d="M1610.09,1375.77C1682.82,1536.34 1720.82,1712.64 1721.67,1905.77L1498.51,1905.77C1502.93,1733.36 1540.36,1556.66 1610.09,1375.77Z" style="fill:white;stroke:black;stroke-width:8.18px;"/>
            </g>
            <g id="crack2" transform="matrix(0.361137,-3.34875e-17,-1.20283e-16,0.603258,1038.17,2604.46)">
                <g transform="matrix(0.710083,0,0,0.986222,1143.63,134.396)">
                    <path d="M768.591,223.12L810.687,274.013L839.589,270.243L880.429,339.986L916.243,339.357L921.897,364.489L954.569,372.029L962.109,410.984L999.179,410.984L1019.91,386.48L997.922,395.905L974.047,392.763L972.162,357.578L940.747,346.897L935.72,314.853L895.509,306.057L862.208,240.085L825.138,228.775L803.147,191.705L768.591,223.12Z"/>
                </g>
                <g transform="matrix(0.710083,0,0,0.986222,1143.63,134.396)">
                    <path d="M861.58,292.234L876.031,318.623L823.882,339.986L826.395,392.763L862.837,414.126L867.863,441.771L836.448,470.045L851.527,438.63L844.616,417.896L810.687,402.816L803.147,326.791L861.58,292.234Z"/>
                </g>
            </g>
            <g transform="matrix(1.46786,2.45198,-1.3603,2.2723,1701.54,-5109.61)">
                <path d="M1602.46,1600.44C1600.06,1597.55 1597.55,1597.44 1594.92,1600.44L1594.92,1606.36L1578.26,1590.06L1578.85,1640L1595.5,1658.65L1595.42,1759.52C1597.57,1762.69 1600.04,1763.09 1602.97,1759.52L1603.04,1658.59L1618.88,1638.77L1618.3,1590.21L1602.46,1606.41L1602.46,1600.44Z" style="fill:white;stroke:black;stroke-width:3.38px;"/>
            </g>
        </g>
        <g id="Damage-Boost1">
            <g transform="matrix(-0.426289,0.753372,-0.87033,-0.492469,2152,-352.326)">
                <path d="M1194.51,204.669C1257.4,331.137 1279.21,469.312 1272.27,615.681L1116.75,615.681C1121.41,421.219 1144.58,276.785 1194.51,204.669Z" style="fill:rgb(255,254,254);"/>
            </g>
            <g>
                <g transform="matrix(-0.413649,-0.487855,0.486143,-0.455362,1106.82,569.536)">
                    <path d="M805.596,114.659C793.794,114.539 781.466,114.42 768.674,114.745C685.609,116.863 657.437,174.942 624.793,216.73C588.41,263.308 518.35,207.224 600.496,185.63C692.599,161.419 703.264,90.344 703.264,90.344C641.006,194.826 587.305,144.044 536.328,172.946C508.59,188.67 514.197,218.311 508.86,237.631C506.794,243.452 502.993,249.751 495.796,252.683C485.314,256.953 467.798,249.898 465.898,248.997C464.009,248.102 456.987,241.867 466.563,236.674C475.159,232.018 477.192,227.618 477.526,226.754C478.54,224.938 479.339,222.868 479.868,220.494C486.463,190.392 491.486,154.662 567.826,140.578C655.076,124.482 652.848,82.284 652.848,82.284C652.848,82.284 632.053,117.456 582.975,119.647C533.885,121.842 496.497,140.646 470.006,182.973C443.504,225.307 375.934,143.957 460.967,138.565C550.922,132.859 538.576,94.103 538.576,94.103C538.576,94.103 540.733,124.709 471.477,120.158C362.756,113.014 395.077,203.421 357.722,206.57C325.453,209.288 338.474,163.532 365.695,146.827C290.999,168.049 345.652,219.526 270.588,235.941C168.281,269.229 147.664,284.532 147.664,284.532C214.588,274.026 270.301,242.759 302.792,257.393C323.292,266.624 335.108,277.473 335.076,297.452C335.015,335.209 187.118,387.198 187.118,387.198C219.894,392.959 279.441,370.27 337.402,356.063C379.634,345.713 382.834,385.334 360.531,407.299C342.975,424.59 216.358,466.307 216.358,466.307C250.386,463.411 322.379,448.573 383.068,429.1C426.978,415.011 465.04,395.436 502.42,398.526C531.911,400.963 561.694,403.4 581.793,383.102C534.672,397.964 495.808,382.811 486.417,367.661C479.62,356.699 488.259,345.734 520.373,346.142C634.053,347.597 629.754,260.288 629.754,260.288C622.076,288.523 606.785,310.816 558.274,318.563C516.01,323.471 498.452,319.797 496.071,312.145C489.456,290.875 543.572,297.505 543.572,297.505C543.572,297.505 502.572,271.292 467.404,307.921C456.162,319.63 442.874,320.946 436.809,312.145C431.689,304.714 436.665,291.978 445.906,285.606C464.647,272.684 502.961,274.614 528.799,284.657C586.984,310.439 602.266,277.471 605.006,269.513C617.006,250.834 638.723,243.986 655.676,241.591C737.184,250.505 739.385,177.611 739.385,177.611C731.766,226.56 656.871,250.135 683.482,196.422C702.598,157.826 753.463,147.273 780.588,144.39C782.344,144.414 784.082,144.439 785.869,144.476C947.447,148.393 943.24,42.839 943.24,42.839C919.457,115.973 870.425,115.316 805.596,114.659Z" style="fill:rgb(255,254,254);stroke:black;stroke-width:4.48px;stroke-linecap:butt;stroke-miterlimit:1.41421;"/>
                </g>
                <g transform="matrix(-0.413649,-0.487855,0.486143,-0.455362,1106.82,569.536)">
                    <path d="M404.8,157.483C390.786,163.062 396.808,210.119 357.702,212.596C324.967,214.671 330.382,191.636 335.506,174.268C317.708,195.658 332.783,199.334 315.539,222.427C300.473,242.603 253.058,238.622 193.045,267.933C235.464,257.125 321.941,214.364 343.64,283.472C362.152,342.419 255.92,365.139 231.322,376.121C244.907,379.175 302.552,363.773 322.181,353.153C348.399,338.969 375.054,350.358 387.005,373.094C397.939,398.5 359.872,423.013 267.936,452.585C362.748,442.634 406.556,404.327 465.108,393.593C473.636,392.03 477.935,392.022 494.474,389.542C494.474,389.542 425.047,389.394 462.901,362.486C500.755,335.576 339.63,290.179 432.766,276.261C422.293,274.43 372.533,259.669 411.45,244.846C446.181,231.616 457.206,206.534 457.206,206.534C395.482,227.748 398.585,172.846 404.83,157.483L404.8,157.483Z"/>
                </g>
            </g>
            <path d="M1461.11,401.447L1426.2,463.337" style="fill:none;stroke:black;stroke-width:6.77px;"/>
        </g>
        <g id="Damage-Boost4" transform="matrix(1,0,0,1,-17.4561,1325.08)">
            <g transform="matrix(-0.426289,0.753372,-0.87033,-0.492469,2152,-352.326)">
                <path d="M1194.51,204.669C1257.4,331.137 1279.21,469.312 1272.27,615.681L1116.75,615.681C1121.41,421.219 1144.58,276.785 1194.51,204.669Z" style="fill:rgb(255,254,254);"/>
            </g>
            <g transform="matrix(-0.413649,-0.487855,0.486143,-0.455362,1106.82,569.536)">
                <g>
                    <path d="M805.596,114.659C793.794,114.539 781.466,114.42 768.674,114.745C685.609,116.863 657.437,174.942 624.793,216.73C588.41,263.308 518.35,207.224 600.496,185.63C692.599,161.419 703.264,90.344 703.264,90.344C641.006,194.826 587.305,144.044 536.328,172.946C508.59,188.67 514.197,218.311 508.86,237.631C506.794,243.452 502.993,249.751 495.796,252.683C485.314,256.953 467.798,249.898 465.898,248.997C464.009,248.102 456.987,241.867 466.563,236.674C475.159,232.018 477.192,227.618 477.526,226.754C478.54,224.938 479.339,222.868 479.868,220.494C486.463,190.392 491.486,154.662 567.826,140.578C655.076,124.482 652.848,82.284 652.848,82.284C652.848,82.284 632.053,117.456 582.975,119.647C533.885,121.842 496.497,140.646 470.006,182.973C443.504,225.307 375.934,143.957 460.967,138.565C550.922,132.859 538.576,94.103 538.576,94.103C538.576,94.103 540.733,124.709 471.477,120.158C362.756,113.014 395.077,203.421 357.722,206.57C325.453,209.288 338.474,163.532 365.695,146.827C290.999,168.049 345.652,219.526 270.588,235.941C168.281,269.229 147.664,284.532 147.664,284.532C214.588,274.026 270.301,242.759 302.792,257.393C323.292,266.624 335.108,277.473 335.076,297.452C335.015,335.209 187.118,387.198 187.118,387.198C219.894,392.959 279.441,370.27 337.402,356.063C379.634,345.713 382.834,385.334 360.531,407.299C342.975,424.59 216.358,466.307 216.358,466.307C250.386,463.411 322.379,448.573 383.068,429.1C426.978,415.011 465.04,395.436 502.42,398.526C531.911,400.963 561.694,403.4 581.793,383.102C534.672,397.964 495.808,382.811 486.417,367.661C479.62,356.699 488.259,345.734 520.373,346.142C634.053,347.597 629.754,260.288 629.754,260.288C622.076,288.523 606.785,310.816 558.274,318.563C516.01,323.471 498.452,319.797 496.071,312.145C489.456,290.875 543.572,297.505 543.572,297.505C543.572,297.505 502.572,271.292 467.404,307.921C456.162,319.63 442.874,320.946 436.809,312.145C431.689,304.714 436.665,291.978 445.906,285.606C464.647,272.684 502.961,274.614 528.799,284.657C586.984,310.439 602.266,277.471 605.006,269.513C617.006,250.834 638.723,243.986 655.676,241.591C737.184,250.505 739.385,177.611 739.385,177.611C731.766,226.56 656.871,250.135 683.482,196.422C702.598,157.826 753.463,147.273 780.588,144.39C782.344,144.414 784.082,144.439 785.869,144.476C947.447,148.393 943.24,42.839 943.24,42.839C919.457,115.973 870.425,115.316 805.596,114.659Z" style="fill:rgb(255,254,254);stroke:black;stroke-width:4.48px;stroke-linecap:butt;stroke-miterlimit:1.41421;"/>
                </g>
            </g>
            <path d="M1461.11,401.447L1426.2,463.337" style="fill:none;stroke:black;stroke-width:6.77px;"/>
        </g>
        <g id="Damage-Boost2" transform="matrix(1,0,0,1,-31.7384,463.38)">
            <g transform="matrix(0.917968,0,0,0.917968,77.3659,12.2741)">
                <g transform="matrix(-0.413649,-0.487855,0.486143,-0.455362,1106.82,569.536)">
                    <path d="M805.596,114.659C793.794,114.539 781.466,114.42 768.674,114.745C685.609,116.863 657.437,174.942 624.793,216.73C588.41,263.308 518.35,207.224 600.496,185.63C692.599,161.419 703.264,90.344 703.264,90.344C641.006,194.826 587.305,144.044 536.328,172.946C508.59,188.67 514.197,218.311 508.86,237.631C506.794,243.452 502.993,249.751 495.796,252.683C485.314,256.953 467.798,249.898 465.898,248.997C464.009,248.102 456.987,241.867 466.563,236.674C475.159,232.018 477.192,227.618 477.526,226.754C478.54,224.938 479.339,222.868 479.868,220.494C486.463,190.392 491.486,154.662 567.826,140.578C655.076,124.482 652.848,82.284 652.848,82.284C652.848,82.284 632.053,117.456 582.975,119.647C533.885,121.842 496.497,140.646 470.006,182.973C443.504,225.307 375.934,143.957 460.967,138.565C550.922,132.859 538.576,94.103 538.576,94.103C538.576,94.103 540.733,124.709 471.477,120.158C362.756,113.014 395.077,203.421 357.722,206.57C325.453,209.288 338.474,163.532 365.695,146.827C290.999,168.049 345.652,219.526 270.588,235.941C168.281,269.229 147.664,284.532 147.664,284.532C214.588,274.026 270.301,242.759 302.792,257.393C323.292,266.624 314.7,283.413 314.668,303.392C314.608,341.149 187.118,387.198 187.118,387.198C219.894,392.959 250.304,385.562 308.266,371.356C350.497,361.005 362.682,384.034 340.379,406C322.823,423.29 216.358,466.307 216.358,466.307C250.386,463.411 322.379,448.573 383.068,429.1C426.978,415.011 465.04,395.436 502.42,398.526C531.911,400.963 561.694,403.4 581.793,383.102C534.672,397.964 495.808,382.811 486.417,367.661C479.62,356.699 488.259,345.734 520.373,346.142C634.053,347.597 629.754,260.288 629.754,260.288C622.076,288.523 606.785,310.816 558.274,318.563C516.01,323.471 498.452,319.797 496.071,312.145C489.456,290.875 543.572,297.505 543.572,297.505C543.572,297.505 502.572,271.292 467.404,307.921C456.162,319.63 442.874,320.946 436.809,312.145C431.689,304.714 436.665,291.978 445.906,285.606C464.647,272.684 502.961,274.614 528.799,284.657C586.984,310.439 602.266,277.471 605.006,269.513C617.006,250.834 638.723,243.986 655.676,241.591C737.184,250.505 739.385,177.611 739.385,177.611C731.766,226.56 656.871,250.135 683.482,196.422C702.598,157.826 753.463,147.273 780.588,144.39C782.344,144.414 784.082,144.439 785.869,144.476C947.447,148.393 943.24,42.839 943.24,42.839C919.457,115.973 870.425,115.316 805.596,114.659Z" style="fill:rgb(255,254,254);stroke:black;stroke-width:4.88px;stroke-linecap:butt;stroke-miterlimit:1.41421;"/>
                </g>
                <g transform="matrix(-0.413649,-0.487855,0.486143,-0.455362,1106.82,569.536)">
                    <path d="M404.8,157.483C390.786,163.062 396.813,210.921 357.702,212.596C326.128,213.949 326.461,187.998 337.534,172.144C315.589,192.107 332.783,199.334 315.539,222.427C300.473,242.603 253.058,238.622 193.045,267.933C235.464,257.125 301.599,222.224 323.298,291.332C341.81,350.279 255.92,365.139 231.322,376.121C244.907,379.175 302.552,363.773 322.181,353.153C348.399,338.969 341.743,361.166 353.694,383.902C364.628,409.308 359.872,423.013 267.936,452.585C362.748,442.634 406.556,404.327 465.108,393.593C473.636,392.03 476.951,392.325 493.49,389.845C493.49,389.845 425.047,389.394 462.901,362.486C500.755,335.576 339.63,290.179 432.766,276.261C422.293,274.43 372.533,259.669 411.45,244.846C446.181,231.616 457.206,206.534 457.206,206.534C395.482,227.748 398.585,172.846 404.83,157.483L404.8,157.483Z"/>
                </g>
            </g>
            <g transform="matrix(-0.426289,0.753372,-0.87033,-0.492469,2152,-352.326)">
                <path d="M1194.51,204.669C1257.4,331.137 1279.21,469.312 1272.27,615.681L1116.75,615.681C1121.41,421.219 1144.58,276.785 1194.51,204.669Z" style="fill:rgb(255,254,254);"/>
            </g>
            <path d="M1461.11,401.447L1426.2,463.337" style="fill:none;stroke:black;stroke-width:6.77px;"/>
        </g>
        <g id="Damage-Boost3" transform="matrix(1,0,0,1,-12.6954,928.347)">
            <g transform="matrix(-0.379716,-0.447835,0.446264,-0.418008,1093.39,535.09)">
                <g>
                    <path d="M805.596,114.659C793.794,114.539 781.466,114.42 768.674,114.745C685.609,116.863 657.437,174.942 624.793,216.73C588.41,263.308 518.35,207.224 600.496,185.63C692.599,161.419 703.264,90.344 703.264,90.344C641.006,194.826 587.305,144.044 536.328,172.946C508.59,188.67 514.197,218.311 508.86,237.631C506.794,243.452 502.993,249.751 495.796,252.683C485.314,256.953 467.798,249.898 465.898,248.997C464.009,248.102 456.987,241.867 466.563,236.674C475.159,232.018 477.192,227.618 477.526,226.754C478.54,224.938 479.339,222.868 479.868,220.494C486.463,190.392 491.486,154.662 567.826,140.578C655.076,124.482 652.848,82.284 652.848,82.284C652.848,82.284 632.053,117.456 582.975,119.647C533.885,121.842 496.497,140.646 470.006,182.973C443.504,225.307 375.934,143.957 460.967,138.565C550.922,132.859 538.576,94.103 538.576,94.103C538.576,94.103 540.733,124.709 471.477,120.158C362.756,113.014 395.077,203.421 357.722,206.57C325.453,209.288 338.474,163.532 365.695,146.827C290.999,168.049 345.652,219.526 270.588,235.941C168.281,269.229 147.664,284.532 147.664,284.532C214.588,274.026 270.301,242.759 302.792,257.393C323.292,266.624 314.7,283.413 314.668,303.392C314.608,341.149 187.118,387.198 187.118,387.198C219.894,392.959 250.304,385.562 308.266,371.356C350.497,361.005 362.682,384.034 340.379,406C322.823,423.29 216.358,466.307 216.358,466.307C250.386,463.411 322.379,448.573 383.068,429.1C426.978,415.011 465.04,395.436 502.42,398.526C531.911,400.963 561.694,403.4 581.793,383.102C534.672,397.964 495.808,382.811 486.417,367.661C479.62,356.699 488.259,345.734 520.373,346.142C634.053,347.597 629.754,260.288 629.754,260.288C622.076,288.523 606.785,310.816 558.274,318.563C516.01,323.471 498.452,319.797 496.071,312.145C489.456,290.875 543.572,297.505 543.572,297.505C543.572,297.505 502.572,271.292 467.404,307.921C456.162,319.63 442.874,320.946 436.809,312.145C431.689,304.714 436.665,291.978 445.906,285.606C464.647,272.684 502.961,274.614 528.799,284.657C586.984,310.439 602.266,277.471 605.006,269.513C617.006,250.834 638.723,243.986 655.676,241.591C737.184,250.505 739.385,177.611 739.385,177.611C731.766,226.56 656.871,250.135 683.482,196.422C702.598,157.826 753.463,147.273 780.588,144.39C782.344,144.414 784.082,144.439 785.869,144.476C947.447,148.393 943.24,42.839 943.24,42.839C919.457,115.973 870.425,115.316 805.596,114.659Z" style="fill:rgb(255,254,254);stroke:black;stroke-width:4.88px;stroke-linecap:butt;stroke-miterlimit:1.41421;"/>
                </g>
            </g>
            <g transform="matrix(-0.426289,0.753372,-0.87033,-0.492469,2152,-352.326)">
                <path d="M1194.51,204.669C1257.4,331.137 1279.21,469.312 1272.27,615.681L1116.75,615.681C1121.41,421.219 1144.58,276.785 1194.51,204.669Z" style="fill:rgb(255,254,254);"/>
            </g>
            <path d="M1461.11,401.447L1426.2,463.337" style="fill:none;stroke:black;stroke-width:6.77px;"/>
        </g>
        <text x="80.268px" y="1906.1px" style="font-family:'ArialMT', 'Arial', sans-serif;font-size:128.078px;fill:white;">Stun</text>
        <g>
            <text x="839.012px" y="1849.07px" style="font-family:'ArialMT', 'Arial', sans-serif;font-size:86.539px;fill:white;">Damage</text>
            <text x="839.012px" y="1938.44px" style="font-family:'ArialMT', 'Arial', sans-serif;font-size:86.539px;fill:white;">Boost</text>
        </g>
        <text x="1300.21px" y="1973.05px" style="font-family:'ArialMT', 'Arial', sans-serif;font-size:86.539px;fill:white;">Armor Penetration</text>
    </g>
</svg>
