<?xml version="1.0" encoding="UTF-8" standalone="no"?>
<!DOCTYPE svg PUBLIC "-//W3C//DTD SVG 1.1//EN" "http://www.w3.org/Graphics/SVG/1.1/DTD/svg11.dtd">
<svg width="100%" height="100%" viewBox="0 0 2056 2868" version="1.1" xmlns="http://www.w3.org/2000/svg" xmlns:xlink="http://www.w3.org/1999/xlink" xml:space="preserve" style="fill-rule:evenodd;clip-rule:evenodd;stroke-linecap:round;stroke-linejoin:round;stroke-miterlimit:1.5;">
    <g id="Artboard1" transform="matrix(1,0,0,1.39505,0,0)">
        <rect x="0" y="0" width="2055.56" height="2055.56"/>
        <clipPath id="_clip1">
            <rect x="0" y="0" width="2055.56" height="2055.56"/>
        </clipPath>
        <g clip-path="url(#_clip1)">
            <g id="Stun1" transform="matrix(0.830639,0,0,0.323206,-68.9053,43.6671)">
                <g transform="matrix(1,0,0,1.84222,0,0)">
                    <path d="M459.473,164.047C633.646,140.292 781.891,171.147 790.314,232.907C798.738,294.667 664.17,364.095 489.997,387.851C315.824,411.606 167.579,380.751 159.156,318.991C150.732,257.231 285.3,187.803 459.473,164.047ZM443.138,175.878C595.739,155.065 725.052,177.91 731.729,226.863C738.406,275.815 619.933,332.457 467.332,353.27C314.731,374.083 185.417,351.238 178.741,302.285C172.064,253.333 290.536,196.692 443.138,175.878Z" style="fill:white;"/>
                </g>
                <g transform="matrix(0.665073,-0.260476,0.150282,1.30224,55.1445,-117.003)">
                    <path d="M263.774,383.446C265.805,376.973 272.124,372.53 279.298,372.53C286.472,372.53 292.79,376.973 294.822,383.446C299.551,398.515 303.525,411.178 303.525,411.178C303.525,411.178 308.604,411.178 316.176,411.178C325.968,411.178 334.691,416.997 337.93,425.691C341.17,434.384 338.219,444.054 330.571,449.807C323.443,455.169 318.498,458.888 318.498,458.888C318.498,458.888 320.833,466.328 324.054,476.588C326.618,484.758 323.25,493.548 315.735,498.3C308.221,503.052 298.298,502.666 291.226,497.346C284.176,492.043 279.298,488.374 279.298,488.374C279.298,488.374 272.061,493.817 262.477,501.026C256.077,505.84 247.097,506.19 240.296,501.889C233.495,497.589 230.447,489.634 232.768,482.24C236.868,469.176 240.097,458.888 240.097,458.888C240.097,458.888 232.856,453.441 223.267,446.228C216.327,441.009 213.65,432.234 216.589,424.346C219.529,416.458 227.444,411.178 236.328,411.178C247.142,411.178 255.07,411.178 255.07,411.178C255.07,411.178 259.045,398.515 263.774,383.446Z" style="fill:white;stroke:black;stroke-width:20.13px;"/>
                </g>
                <g transform="matrix(1.17503,0,0,2.39836,-22.781,-1875.3)">
                    <path d="M448.856,729.913L492.88,884.203L616.617,811.777L555.139,957.55L686.106,1009.41L555.139,1061.28L616.617,1207.05L492.88,1134.63L448.856,1288.91L404.831,1134.63L281.094,1207.05L342.572,1061.28L211.605,1009.41L342.572,957.55L281.094,811.777L404.831,884.203L448.856,729.913Z" style="fill:white;stroke:black;stroke-width:9.31px;"/>
                </g>
                <g transform="matrix(1.03734,0.610022,-0.333832,1.92658,614.989,-534.877)">
                    <path d="M269.647,364.731C270.962,360.541 274.873,357.686 279.298,357.686C283.723,357.686 287.633,360.541 288.948,364.731C295.703,386.255 303.525,411.178 303.525,411.178C303.525,411.178 320.794,411.178 339.122,411.178C345.304,411.178 350.795,415.093 352.766,420.905C354.736,426.717 352.745,433.128 347.82,436.833C332.799,448.131 318.498,458.888 318.498,458.888C318.498,458.888 324.626,478.413 330.718,497.824C332.391,503.153 330.401,508.944 325.794,512.151C321.188,515.357 315.021,515.244 310.537,511.872C294.84,500.064 279.298,488.374 279.298,488.374C279.298,488.374 261.67,501.633 245.001,514.172C240.943,517.224 235.362,517.326 231.193,514.424C227.024,511.523 225.223,506.282 226.736,501.458C233.179,480.931 240.097,458.888 240.097,458.888C240.097,458.888 223.725,446.573 207.616,434.456C203.147,431.094 201.34,425.277 203.128,420.004C204.916,414.73 209.899,411.178 215.508,411.178C235.228,411.178 255.07,411.178 255.07,411.178C255.07,411.178 262.892,386.255 269.647,364.731Z" style="fill:white;stroke:black;stroke-width:17.07px;"/>
                </g>
                <g transform="matrix(0.973552,-0.381291,0.208695,1.80842,-80.9648,-4.53254)">
                    <path d="M268.74,367.624C270.178,363.039 274.457,359.916 279.298,359.916C284.139,359.916 288.417,363.039 289.856,367.624C296.384,388.424 303.525,411.178 303.525,411.178C303.525,411.178 318.348,411.178 335.103,411.178C341.866,411.178 347.874,415.46 350.03,421.817C352.185,428.174 350.008,435.187 344.62,439.24C330.831,449.612 318.498,458.888 318.498,458.888C318.498,458.888 323.893,476.075 329.59,494.23C331.42,500.06 329.242,506.394 324.202,509.902C319.162,513.409 312.415,513.285 307.51,509.595C292.902,498.607 279.298,488.374 279.298,488.374C279.298,488.374 263.545,500.223 247.74,512.111C243.301,515.45 237.194,515.563 232.633,512.389C228.072,509.215 226.101,503.482 227.757,498.206C233.888,478.67 240.097,458.888 240.097,458.888C240.097,458.888 225.633,448.009 210.52,436.64C205.63,432.963 203.655,426.6 205.611,420.832C207.567,415.064 213.018,411.178 219.154,411.178C237.601,411.178 255.07,411.178 255.07,411.178C255.07,411.178 262.211,388.424 268.74,367.624Z" style="fill:white;stroke:black;stroke-width:18.67px;"/>
                </g>
                <g transform="matrix(1.20389,0,0,2.21784,-42.5823,-1642.63)">
                    <path d="M325.953,1036.46C365.889,1036.46 567.567,1001.19 614.824,972.564" style="fill:none;stroke:black;stroke-width:12.68px;"/>
                </g>
                <g transform="matrix(1.20389,0,0,2.21784,-42.5823,-1642.63)">
                    <path d="M330.263,1075.42C361.546,1072.76 479.042,1073.07 624.143,1021.15" style="fill:none;stroke:black;stroke-width:14.56px;"/>
                </g>
                <g transform="matrix(1.19875,-0.204779,0.102911,2.04451,-149.429,-1390.84)">
                    <path d="M370.799,1040.64C358.042,1041.28 345.275,1041.45 332.213,1041.29L322.3,1068.78C336.155,1070.32 344.469,1068.94 357.608,1069.49L370.799,1040.64Z" style="fill:white;"/>
                </g>
            </g>
            <g id="Stun2" transform="matrix(0.830639,0,0,0.323206,-71.3848,484.461)">
                <g transform="matrix(1,0,0,1.84222,0,0)">
                    <path d="M459.473,164.047C633.646,140.292 781.891,171.147 790.314,232.907C798.738,294.667 664.17,364.095 489.997,387.851C315.824,411.606 167.579,380.751 159.156,318.991C150.732,257.231 285.3,187.803 459.473,164.047ZM443.138,175.878C595.739,155.065 725.052,177.91 731.729,226.863C738.406,275.815 619.933,332.457 467.332,353.27C314.731,374.083 185.417,351.238 178.741,302.285C172.064,253.333 290.536,196.692 443.138,175.878Z" style="fill:white;"/>
                </g>
                <g transform="matrix(0.665073,-0.260476,0.150282,1.30224,55.1445,-117.003)">
                    <path d="M263.774,383.446C265.805,376.973 272.124,372.53 279.298,372.53C286.472,372.53 292.79,376.973 294.822,383.446C299.551,398.515 303.525,411.178 303.525,411.178C303.525,411.178 308.604,411.178 316.176,411.178C325.968,411.178 334.691,416.997 337.93,425.691C341.17,434.384 338.219,444.054 330.571,449.807C323.443,455.169 318.498,458.888 318.498,458.888C318.498,458.888 320.833,466.328 324.054,476.588C326.618,484.758 323.25,493.548 315.735,498.3C308.221,503.052 298.298,502.666 291.226,497.346C284.176,492.043 279.298,488.374 279.298,488.374C279.298,488.374 272.061,493.817 262.477,501.026C256.077,505.84 247.097,506.19 240.296,501.889C233.495,497.589 230.447,489.634 232.768,482.24C236.868,469.176 240.097,458.888 240.097,458.888C240.097,458.888 232.856,453.441 223.267,446.228C216.327,441.009 213.65,432.234 216.589,424.346C219.529,416.458 227.444,411.178 236.328,411.178C247.142,411.178 255.07,411.178 255.07,411.178C255.07,411.178 259.045,398.515 263.774,383.446Z" style="fill:white;stroke:black;stroke-width:20.13px;"/>
                </g>
                <g transform="matrix(1.17503,0,0,2.39836,-22.781,-1875.3)">
                    <path d="M448.856,729.913L492.88,884.203L616.617,811.777L555.139,957.55L686.106,1009.41L555.139,1061.28L616.617,1207.05L492.88,1134.63L448.856,1288.91L404.831,1134.63L281.094,1207.05L342.572,1061.28L211.605,1009.41L342.572,957.55L281.094,811.777L404.831,884.203L448.856,729.913Z" style="stroke:white;stroke-width:9.31px;"/>
                </g>
                <g transform="matrix(0.867547,0,0,1.77075,115.235,-1241.79)">
                    <path d="M448.856,729.913L492.88,884.203L616.617,811.777L555.139,957.55L686.106,1009.41L555.139,1061.28L616.617,1207.05L492.88,1134.63L448.856,1288.91L404.831,1134.63L281.094,1207.05L342.572,1061.28L211.605,1009.41L342.572,957.55L281.094,811.777L404.831,884.203L448.856,729.913Z" style="fill:white;stroke:black;stroke-width:12.61px;"/>
                </g>
                <g transform="matrix(1.19875,-0.204779,0.102911,2.04451,-149.429,-1390.84)">
                    <path d="M383.45,1039.98C370.693,1040.62 345.275,1041.45 332.213,1041.29L322.3,1068.78C336.155,1070.32 356.884,1069.44 370.022,1070L383.45,1039.98Z" style="fill:white;"/>
                </g>
                <g transform="matrix(2.15845,-1.08741,0.423079,2.85007,-570.076,-2015.65)">
                    <path d="M383.45,1039.98C370.693,1040.62 345.275,1041.45 332.213,1041.29L322.3,1068.78C336.155,1070.32 356.884,1069.44 370.022,1070L383.45,1039.98Z" style="fill:white;"/>
                </g>
                <g transform="matrix(1.03734,0.610022,-0.333832,1.92658,614.989,-534.877)">
                    <path d="M269.647,364.731C270.962,360.541 274.873,357.686 279.298,357.686C283.723,357.686 287.633,360.541 288.948,364.731C295.703,386.255 303.525,411.178 303.525,411.178C303.525,411.178 320.794,411.178 339.122,411.178C345.304,411.178 350.795,415.093 352.766,420.905C354.736,426.717 352.745,433.128 347.82,436.833C332.799,448.131 318.498,458.888 318.498,458.888C318.498,458.888 324.626,478.413 330.718,497.824C332.391,503.153 330.401,508.944 325.794,512.151C321.188,515.357 315.021,515.244 310.537,511.872C294.84,500.064 279.298,488.374 279.298,488.374C279.298,488.374 261.67,501.633 245.001,514.172C240.943,517.224 235.362,517.326 231.193,514.424C227.024,511.523 225.223,506.282 226.736,501.458C233.179,480.931 240.097,458.888 240.097,458.888C240.097,458.888 223.725,446.573 207.616,434.456C203.147,431.094 201.34,425.277 203.128,420.004C204.916,414.73 209.899,411.178 215.508,411.178C235.228,411.178 255.07,411.178 255.07,411.178C255.07,411.178 262.892,386.255 269.647,364.731Z" style="fill:white;stroke:black;stroke-width:17.07px;"/>
                </g>
                <g transform="matrix(0.973552,-0.381291,0.208695,1.80842,-80.9648,-4.53254)">
                    <path d="M268.74,367.624C270.178,363.039 274.457,359.916 279.298,359.916C284.139,359.916 288.417,363.039 289.856,367.624C296.384,388.424 303.525,411.178 303.525,411.178C303.525,411.178 318.348,411.178 335.103,411.178C341.866,411.178 347.874,415.46 350.03,421.817C352.185,428.174 350.008,435.187 344.62,439.24C330.831,449.612 318.498,458.888 318.498,458.888C318.498,458.888 323.893,476.075 329.59,494.23C331.42,500.06 329.242,506.394 324.202,509.902C319.162,513.409 312.415,513.285 307.51,509.595C292.902,498.607 279.298,488.374 279.298,488.374C279.298,488.374 263.545,500.223 247.74,512.111C243.301,515.45 237.194,515.563 232.633,512.389C228.072,509.215 226.101,503.482 227.757,498.206C233.888,478.67 240.097,458.888 240.097,458.888C240.097,458.888 225.633,448.009 210.52,436.64C205.63,432.963 203.655,426.6 205.611,420.832C207.567,415.064 213.018,411.178 219.154,411.178C237.601,411.178 255.07,411.178 255.07,411.178C255.07,411.178 262.211,388.424 268.74,367.624Z" style="fill:white;stroke:black;stroke-width:18.67px;"/>
                </g>
                <g transform="matrix(1.20389,0,0,2.21784,-42.5823,-1642.63)">
                    <path d="M325.953,1036.46C365.889,1036.46 567.567,1001.19 614.824,972.564" style="fill:none;stroke:black;stroke-width:12.68px;"/>
                </g>
                <g transform="matrix(1.20389,0,0,2.21784,-42.5823,-1642.63)">
                    <path d="M330.263,1075.42C361.546,1072.76 479.042,1073.07 624.143,1021.15" style="fill:none;stroke:black;stroke-width:14.56px;"/>
                </g>
            </g>
            <g id="Stun3" transform="matrix(1,0,0,0.716818,0,-27.7717)">
                <path d="M389.277,1430.09L430.97,1558.41L540.123,1479.1L498.43,1607.42L633.351,1607.42L524.198,1686.73L633.351,1766.03L498.43,1766.03L540.123,1894.35L430.97,1815.04L389.277,1943.36L347.584,1815.04L238.431,1894.35L280.124,1766.03L145.203,1766.03L254.356,1686.73L145.203,1607.42L280.124,1607.42L238.431,1479.1L347.584,1558.41L389.277,1430.09Z" style="fill:white;"/>
                <g transform="matrix(-0.776045,0.630678,-0.630678,-0.776045,1741.49,2774.09)">
                    <path d="M207.31,1561.87L98.434,1475.74" style="fill:none;stroke:white;stroke-width:9.12px;"/>
                </g>
                <g transform="matrix(0.807781,-0.589483,0.589483,0.807781,-915.907,550.454)">
                    <path d="M207.31,1561.87L98.434,1475.74" style="fill:none;stroke:white;stroke-width:9.12px;"/>
                </g>
                <path d="M376.879,1601.74C560.943,1601.74 710.38,1641.74 710.38,1691C710.38,1740.27 560.943,1780.27 376.879,1780.27C192.815,1780.27 43.378,1740.27 43.378,1691C43.378,1641.74 192.815,1601.74 376.879,1601.74ZM376.879,1624.05C514.927,1624.05 627.005,1654.05 627.005,1691C627.005,1727.95 514.927,1757.95 376.879,1757.95C238.831,1757.95 126.753,1727.95 126.753,1691C126.753,1654.05 238.831,1624.05 376.879,1624.05Z" style="fill:white;stroke:black;stroke-width:9.12px;"/>
                <path d="M389.277,1430.09L430.97,1558.41L540.123,1479.1L498.43,1607.42L633.351,1607.42L524.198,1686.73L254.356,1686.73L145.203,1607.42L280.124,1607.42L238.431,1479.1L347.584,1558.41L389.277,1430.09Z" style="fill:white;"/>
                <path d="M207.31,1561.87L98.434,1475.74" style="fill:none;stroke:white;stroke-width:9.12px;"/>
                <g transform="matrix(0.99374,0,0,0.97428,13.6162,146.831)">
                    <path d="M207.31,1561.87L98.434,1475.74" style="fill:none;stroke:black;stroke-width:9.27px;"/>
                </g>
                <g transform="matrix(0.297242,-0.941722,0.905201,0.285715,-819.39,1346.42)">
                    <path d="M207.31,1561.87L98.434,1475.74" style="fill:none;stroke:black;stroke-width:9.42px;"/>
                </g>
                <g transform="matrix(0.794766,0.606916,-0.606916,0.794766,1105.1,119.804)">
                    <path d="M207.31,1561.87L98.434,1475.74" style="fill:none;stroke:white;stroke-width:9.12px;"/>
                </g>
                <g transform="matrix(0.263307,0.964712,-0.964712,0.263307,1910.68,885.721)">
                    <path d="M207.31,1561.87L98.434,1475.74" style="fill:none;stroke:white;stroke-width:9.12px;"/>
                </g>
                <g transform="matrix(-0.376231,0.926526,-0.926526,-0.376231,2077.96,1971.18)">
                    <path d="M207.31,1561.87L98.434,1475.74" style="fill:none;stroke:white;stroke-width:9.12px;"/>
                </g>
                <g transform="matrix(-0.999385,-0.0350649,0.0350649,-0.999385,714.86,3377.64)">
                    <path d="M207.31,1561.87L98.434,1475.74" style="fill:none;stroke:white;stroke-width:9.12px;"/>
                </g>
                <g transform="matrix(-0.776298,-0.630366,0.630366,-0.776298,-365.73,3231.29)">
                    <path d="M207.31,1561.87L98.434,1475.74" style="fill:none;stroke:white;stroke-width:9.12px;"/>
                </g>
                <g transform="matrix(-0.307998,-0.951387,0.951387,-0.307998,-1100.48,2570.81)">
                    <path d="M207.31,1561.87L98.434,1475.74" style="fill:none;stroke:white;stroke-width:9.12px;"/>
                </g>
                <g transform="matrix(0.483809,-0.875174,0.875174,0.483809,-1259.42,1235.42)">
                    <path d="M207.31,1561.87L98.434,1475.74" style="fill:none;stroke:white;stroke-width:9.12px;"/>
                </g>
                <g transform="matrix(0.951693,-0.307051,0.307051,0.951693,-592.227,256.432)">
                    <path d="M648.905,1681.3L663.954,1732.67L712.655,1732.67L673.255,1764.42L688.305,1815.79L648.905,1784.04L609.504,1815.79L624.554,1764.42L585.154,1732.67L633.855,1732.67L648.905,1681.3Z" style="fill:white;stroke:black;stroke-width:9.12px;"/>
                </g>
                <g transform="matrix(0.98018,0.198109,-0.198109,0.98018,402.672,-28.7379)">
                    <path d="M170.747,1698.37L188.259,1750.3L244.93,1750.3L199.082,1782.39L216.594,1834.33L170.747,1802.23L124.9,1834.33L142.412,1782.39L96.564,1750.3L153.235,1750.3L170.747,1698.37Z" style="fill:white;stroke:black;stroke-width:9.12px;"/>
                </g>
            </g>
            <g id="Stun4" transform="matrix(1,0,0,0.716818,12.3978,496.559)">
                <g transform="matrix(1,0,0,1,-15.6381,0)">
                    <path d="M389.277,1430.09L430.97,1558.41L540.123,1479.1L498.43,1607.42L633.351,1607.42L524.198,1686.73L633.351,1766.03L498.43,1766.03L540.123,1894.35L430.97,1815.04L389.277,1943.36L347.584,1815.04L238.431,1894.35L280.124,1766.03L145.203,1766.03L254.356,1686.73L145.203,1607.42L280.124,1607.42L238.431,1479.1L347.584,1558.41L389.277,1430.09Z" style="fill:white;"/>
                </g>
                <g transform="matrix(1,0,-1.11022e-16,1,-31.276,-731.47)">
                    <circle cx="404.915" cy="2423.41" r="78.975"/>
                </g>
                <g transform="matrix(0.979112,-0.203319,0.203319,0.979112,-339.182,112.281)">
                    <path d="M376.879,1601.74C560.943,1601.74 710.38,1641.74 710.38,1691C710.38,1740.27 560.943,1780.27 376.879,1780.27C192.815,1780.27 43.378,1740.27 43.378,1691C43.378,1641.74 192.815,1601.74 376.879,1601.74ZM376.879,1624.05C514.927,1624.05 627.005,1654.05 627.005,1691C627.005,1727.95 514.927,1757.95 376.879,1757.95C238.831,1757.95 126.753,1727.95 126.753,1691C126.753,1654.05 238.831,1624.05 376.879,1624.05Z" style="fill:white;stroke:black;stroke-width:9.12px;"/>
                </g>
                <g transform="matrix(0.497266,-0.267325,0.281938,0.524449,-416.941,783.459)">
                    <path d="M170.747,1698.37L188.259,1750.3L244.93,1750.3L199.082,1782.39L216.594,1834.33L170.747,1802.23L124.9,1834.33L142.412,1782.39L96.564,1750.3L153.235,1750.3L170.747,1698.37Z" style="fill:white;stroke:black;stroke-width:7.6px;"/>
                </g>
                <g transform="matrix(1,0,0,1,-15.6381,0)">
                    <path d="M389.277,1430.09L430.97,1558.41L540.123,1479.1L498.43,1607.42L633.351,1607.42L524.198,1686.73L254.356,1686.73L145.203,1607.42L280.124,1607.42L238.431,1479.1L347.584,1558.41L389.277,1430.09Z" style="fill:white;"/>
                </g>
                <g transform="matrix(1,0,-1.11022e-16,1,-31.276,-731.47)">
                    <path d="M404.915,2344.44C448.502,2344.44 483.89,2379.83 483.89,2423.41C483.89,2467 325.94,2467 325.94,2423.41C325.94,2379.83 361.327,2344.44 404.915,2344.44Z"/>
                </g>
                <g transform="matrix(1.01578,0,0,0.980611,4.68716,144.248)">
                    <path d="M207.31,1561.87L98.434,1475.74" style="fill:none;stroke:black;stroke-width:9.14px;"/>
                </g>
                <g transform="matrix(0.263171,-0.833778,0.746111,0.2355,-596.349,1410.93)">
                    <path d="M207.31,1561.87L98.434,1475.74" style="fill:none;stroke:black;stroke-width:10.99px;"/>
                </g>
                <g transform="matrix(-0.156294,-0.883013,0.602547,-0.106651,-384.53,1846.21)">
                    <path d="M207.31,1561.87L98.434,1475.74" style="fill:none;stroke:black;stroke-width:11.88px;"/>
                </g>
                <g transform="matrix(0.795587,-0.585008,0.562321,0.764733,-419.656,531.858)">
                    <path d="M207.31,1561.87L98.434,1475.74" style="fill:none;stroke:black;stroke-width:9.42px;"/>
                </g>
                <g transform="matrix(0.869385,-0.494135,0.494135,0.869385,-866.901,483.767)">
                    <path d="M648.905,1681.3L663.954,1732.67L712.655,1732.67L673.255,1764.42L688.305,1815.79L648.905,1784.04L609.504,1815.79L624.554,1764.42L585.154,1732.67L633.855,1732.67L648.905,1681.3Z" style="fill:white;stroke:black;stroke-width:9.12px;"/>
                </g>
                <g transform="matrix(0.999986,-0.00531891,0.00531891,0.999986,49.2365,2.27186)">
                    <path d="M170.747,1698.37L188.259,1750.3L244.93,1750.3L199.082,1782.39L216.594,1834.33L170.747,1802.23L124.9,1834.33L142.412,1782.39L96.564,1750.3L153.235,1750.3L170.747,1698.37Z" style="fill:white;stroke:black;stroke-width:9.12px;"/>
                </g>
            </g>
            <g id="Damage1" transform="matrix(1,0,0,0.539343,77.4862,-458.234)">
                <g transform="matrix(0.763488,0.332484,-0.180035,0.730259,227.148,570.886)">
                    <path d="M1372.92,314.24L1209.03,314.24C1247.93,407.294 1261.63,496.542 1258.91,584.308L1332.54,584.308C1332.03,490.024 1341.75,398.86 1372.92,314.24Z" style="fill:white;"/>
                </g>
                <g transform="matrix(1,0,0,1.32906,-77.4862,798.123)">
                    <path d="M1186.54,433.233C1186.54,433.233 1197.97,402.764 1197.97,368.487" style="fill:none;stroke:black;stroke-width:4.41px;"/>
                </g>
                <g transform="matrix(1,0,0,1.32906,-77.4862,798.123)">
                    <path d="M1203.05,452.276C1203.05,452.276 1217.01,402.764 1239.86,378.643" style="fill:none;stroke:black;stroke-width:4.41px;"/>
                </g>
                <g transform="matrix(0.544112,-0.322168,0.222757,0.664546,125.689,1255.37)">
                    <path d="M1568.73,881.315C1658.68,997.255 1607.3,1076.38 1454.36,895.444C1319.26,735.6 1371.91,646.247 1473.02,769.578L1463.86,787.501C1382.16,693.946 1408.33,811.755 1468.53,880.973C1530.09,951.756 1621.49,1001.84 1555.93,892.454C1555.43,891.631 1555.93,893.46 1555.93,892.454L1568.73,881.315Z" style="fill:white;stroke:black;stroke-width:4.42px;"/>
                </g>
                <g transform="matrix(0.944611,0.436185,-0.328191,1.25544,190.212,250.696)">
                    <path d="M1110.89,260.469C1110.89,247.216 1131.42,236.455 1156.71,236.455C1182,236.455 1202.53,247.216 1202.53,260.469C1216.58,251.097 1242.51,253.167 1260.39,265.087C1278.27,277.007 1281.38,294.294 1267.32,303.665C1287.2,303.665 1303.34,317.352 1303.34,334.209C1303.34,351.067 1287.2,364.754 1267.32,364.754C1281.38,374.125 1278.27,391.412 1260.39,403.332C1242.51,415.252 1216.58,417.321 1202.53,407.95C1202.53,421.203 1182,431.964 1156.71,431.964C1131.42,431.964 1110.89,421.203 1110.89,407.95C1096.84,417.321 1070.9,415.252 1053.03,403.332C1035.14,391.412 1032.04,374.125 1046.1,364.754C1026.22,364.754 1010.08,351.067 1010.08,334.209C1010.08,317.352 1026.22,303.665 1046.1,303.665C1032.04,294.294 1035.14,277.007 1053.03,265.087C1070.9,253.167 1096.84,251.097 1110.89,260.469Z" style="fill:white;stroke:black;stroke-width:4.41px;"/>
                </g>
                <g transform="matrix(1,0,0,1.32906,0,0)">
                    <path d="M937.609,792.533C942.257,783.237 951.758,777.364 962.152,777.364C972.545,777.364 982.047,783.237 986.695,792.533C1028.92,876.978 1114.68,1048.51 1155.41,1129.97C1160.22,1139.59 1159.71,1151.01 1154.06,1160.16C1148.4,1169.3 1138.42,1174.87 1127.66,1174.87C1045.66,1174.87 883.713,1174.87 799.741,1174.87C788.324,1174.87 777.721,1168.96 771.719,1159.25C765.717,1149.54 765.171,1137.41 770.277,1127.2C811.541,1044.67 895.859,876.031 937.609,792.533Z" style="fill:white;stroke:black;stroke-width:21.16px;"/>
                </g>
                <g transform="matrix(1,0,0,1.32906,3.04913,0)">
                    <text x="878.743px" y="1146.11px" style="font-family:'Calibri', sans-serif;font-size:444.354px;">!</text>
                </g>
            </g>
            <g id="Damage2" transform="matrix(1.44519,0,0,1.58929,-558.63,-543.974)">
                <g transform="matrix(0.803389,0.00564382,-0.00566624,0.414444,66.4724,621.24)">
                    <path d="M1372.92,314.24L1209.03,314.24C1273.16,432.828 1255.41,565.786 1216.94,584.479L1364.07,583.878C1326.41,542.114 1318.86,412.053 1372.92,314.24Z" style="fill:white;"/>
                </g>
                <g transform="matrix(1.92384,-0.43694,0.521506,1.17984,-1414.81,883.28)">
                    <path d="M1182.78,429.454C1182.78,429.454 1197.97,402.764 1197.97,368.487" style="fill:none;stroke:black;stroke-width:1.6px;"/>
                </g>
                <g transform="matrix(1.15003,-0.261193,0.428661,0.969792,-464.159,750.968)">
                    <path d="M1215.4,452.702C1215.4,452.702 1217.01,402.764 1239.86,378.643" style="fill:none;stroke:black;stroke-width:2.25px;"/>
                </g>
                <g transform="matrix(0.421275,-0.280242,0.378589,0.241803,151.068,1034.42)">
                    <path d="M1568.73,881.315C1658.68,997.255 1615.61,1069.44 1462.68,888.509C1327.58,728.664 1371.91,646.247 1473.02,769.578L1463.86,787.501C1382.16,693.946 1416.65,804.819 1476.85,874.037C1538.41,944.82 1621.49,1001.84 1555.93,892.454C1555.43,891.631 1555.93,893.46 1555.93,892.454L1568.73,881.315Z" style="fill:white;stroke:black;stroke-width:6.53px;"/>
                </g>
                <g transform="matrix(0.99962,0.0197468,-0.0275479,0.716546,-41.5052,464.611)">
                    <path d="M1110.89,260.469C1110.89,247.216 1131.42,236.455 1156.71,236.455C1182,236.455 1202.53,247.216 1202.53,260.469C1216.58,251.097 1242.51,253.167 1260.39,265.087C1278.27,277.007 1281.38,294.294 1267.32,303.665C1287.2,303.665 1303.34,317.352 1303.34,334.209C1303.34,351.067 1287.2,364.754 1267.32,364.754C1281.38,374.125 1278.27,391.412 1260.39,403.332C1242.51,415.252 1216.58,417.321 1202.53,407.95C1202.53,421.203 1182,431.964 1156.71,431.964C1131.42,431.964 1110.89,421.203 1110.89,407.95C1096.84,417.321 1070.9,415.252 1053.03,403.332C1035.14,391.412 1032.04,374.125 1046.1,364.754C1026.22,364.754 1010.08,351.067 1010.08,334.209C1010.08,317.352 1026.22,303.665 1046.1,303.665C1032.04,294.294 1035.14,277.007 1053.03,265.087C1070.9,253.167 1096.84,251.097 1110.89,260.469Z" style="fill:white;stroke:black;stroke-width:2.9px;"/>
                </g>
                <g transform="matrix(0.288638,0,0,0.188141,916.058,599.645)">
                    <path d="M936.703,794.344C941.523,784.705 951.375,778.616 962.152,778.616C972.929,778.616 982.781,784.705 987.601,794.344C1029.12,877.376 1110.94,1041.02 1152.44,1124.02C1157.89,1134.91 1157.3,1147.85 1150.9,1158.21C1144.5,1168.57 1133.19,1174.87 1121.01,1174.87C1036.43,1174.87 878.745,1174.87 797.594,1174.87C786.637,1174.87 776.461,1169.2 770.701,1159.88C764.94,1150.56 764.417,1138.92 769.317,1129.12C809.928,1047.89 894.32,879.11 936.703,794.344Z" style="fill:white;stroke:black;stroke-width:20.74px;"/>
                </g>
                <g transform="matrix(0.288638,0,0,0.188141,916.938,599.645)">
                    <text x="878.743px" y="1146.11px" style="font-family:'Calibri', sans-serif;font-size:444.354px;">!</text>
                </g>
            </g>
            <g id="Damage3" transform="matrix(1,0,0,1,0,-27.7717)">
                <g transform="matrix(1,0,0,0.716818,0,0)">
                    <path d="M1059.23,1657.39C1059.23,1640.08 1087.35,1626.02 1121.98,1626.02C1156.62,1626.02 1184.74,1640.08 1184.74,1657.39C1203.99,1645.15 1239.51,1647.85 1264,1663.42C1288.49,1678.99 1292.74,1701.58 1273.49,1713.82C1300.72,1713.82 1322.83,1731.7 1322.83,1753.72C1322.83,1775.74 1300.72,1793.62 1273.49,1793.62C1292.74,1805.86 1288.49,1828.44 1264,1844.01C1239.51,1859.59 1203.99,1862.29 1184.74,1850.05C1184.74,1867.36 1156.62,1881.41 1121.98,1881.41C1087.35,1881.41 1059.23,1867.36 1059.23,1850.05C1039.97,1862.29 1004.46,1859.59 979.964,1844.01C955.473,1828.44 951.222,1805.86 970.477,1793.62C943.246,1793.62 921.138,1775.74 921.138,1753.72C921.138,1731.7 943.246,1713.82 970.477,1713.82C951.222,1701.58 955.473,1678.99 979.964,1663.42C1004.46,1647.85 1039.97,1645.15 1059.23,1657.39Z" style="fill:white;"/>
                </g>
                <g transform="matrix(0.48018,-0.132278,0.163765,0.30546,107.585,753.434)">
                    <path d="M1025.59,1669.37C1037.74,1644.6 1076.84,1626.02 1121.98,1626.02C1167.13,1626.02 1206.22,1644.6 1218.37,1669.37C1259.18,1669.06 1299.05,1686.96 1313,1714.26C1326.95,1741.56 1311.24,1770.94 1277.94,1785.94C1291.02,1810.52 1276.56,1840.15 1240.04,1857.03C1203.51,1873.9 1154.71,1873.48 1121.98,1857.98C1089.26,1873.48 1040.45,1873.9 1003.93,1857.03C967.404,1840.15 952.95,1810.52 966.02,1785.94C932.723,1770.94 917.017,1741.56 930.968,1714.26C944.92,1686.96 984.787,1669.06 1025.59,1669.37Z" style="fill:white;"/>
                </g>
                <g transform="matrix(-0.48018,0.132278,-0.163765,-0.30546,2121.73,1761.21)">
                    <path d="M1025.59,1669.37C1037.74,1644.6 1076.84,1626.02 1121.98,1626.02C1167.13,1626.02 1206.22,1644.6 1218.37,1669.37C1259.18,1669.06 1299.05,1686.96 1313,1714.26C1326.95,1741.56 1311.24,1770.94 1277.94,1785.94C1291.02,1810.52 1276.56,1840.15 1240.04,1857.03C1203.51,1873.9 1154.71,1873.48 1121.98,1857.98C1089.26,1873.48 1040.45,1873.9 1003.93,1857.03C967.404,1840.15 952.95,1810.52 966.02,1785.94C932.723,1770.94 917.017,1741.56 930.968,1714.26C944.92,1686.96 984.787,1669.06 1025.59,1669.37Z" style="fill:white;"/>
                </g>
                <g transform="matrix(0.482103,0.128634,-0.159254,0.306683,1033.93,458.661)">
                    <path d="M1025.59,1669.37C1037.74,1644.6 1076.84,1626.02 1121.98,1626.02C1167.13,1626.02 1206.22,1644.6 1218.37,1669.37C1259.18,1669.06 1299.05,1686.96 1313,1714.26C1326.95,1741.56 1311.24,1770.94 1277.94,1785.94C1291.02,1810.52 1276.56,1840.15 1240.04,1857.03C1203.51,1873.9 1154.71,1873.48 1121.98,1857.98C1089.26,1873.48 1040.45,1873.9 1003.93,1857.03C967.404,1840.15 952.95,1810.52 966.02,1785.94C932.723,1770.94 917.017,1741.56 930.968,1714.26C944.92,1686.96 984.787,1669.06 1025.59,1669.37Z" style="fill:white;"/>
                </g>
                <g transform="matrix(-0.482103,-0.128634,0.159254,-0.306683,1195.39,2055.99)">
                    <path d="M1025.59,1669.37C1037.74,1644.6 1076.84,1626.02 1121.98,1626.02C1167.13,1626.02 1206.22,1644.6 1218.37,1669.37C1259.18,1669.06 1299.05,1686.96 1313,1714.26C1326.95,1741.56 1311.24,1770.94 1277.94,1785.94C1291.02,1810.52 1276.56,1840.15 1240.04,1857.03C1203.51,1873.9 1154.71,1873.48 1121.98,1857.98C1089.26,1873.48 1040.45,1873.9 1003.93,1857.03C967.404,1840.15 952.95,1810.52 966.02,1785.94C932.723,1770.94 917.017,1741.56 930.968,1714.26C944.92,1686.96 984.787,1669.06 1025.59,1669.37Z" style="fill:white;"/>
                </g>
                <g id="stalk" transform="matrix(0.707107,-0.506867,0.986452,0.707107,-961.02,914.499)">
                    <g transform="matrix(1,0,0,0.716818,0,0)">
                        <path d="M1126.94,1551.63L1082.31,1551.63C1090.69,1612.49 1091.2,1672.08 1082.31,1730.16L1126.94,1730.16C1119.16,1671.3 1118.95,1611.8 1126.94,1551.63Z" style="fill:white;stroke:black;stroke-width:5.35px;"/>
                    </g>
                    <g transform="matrix(1.734,0,0,0.207374,-811.579,887.384)">
                        <rect x="1082.31" y="1551.63" width="44.632" height="178.528" style="fill:white;"/>
                    </g>
                    <g transform="matrix(2.16791,0,0,0.222848,-1287.03,747.532)">
                        <rect x="1082.31" y="1551.63" width="44.632" height="178.528" style="fill:white;"/>
                    </g>
                </g>
                <g id="stalk1" transform="matrix(-0.707107,0.506867,-0.986452,-0.707107,3208.65,1600.18)">
                    <g transform="matrix(1,0,0,0.716818,0,0)">
                        <path d="M1126.94,1551.63L1082.31,1551.63C1090.69,1612.49 1091.2,1672.08 1082.31,1730.16L1126.94,1730.16C1119.16,1671.3 1118.95,1611.8 1126.94,1551.63Z" style="fill:white;stroke:black;stroke-width:5.35px;"/>
                    </g>
                    <g transform="matrix(1.734,0,0,0.207374,-811.579,887.384)">
                        <rect x="1082.31" y="1551.63" width="44.632" height="178.528" style="fill:white;"/>
                    </g>
                    <g transform="matrix(2.16791,0,0,0.222848,-1287.03,747.532)">
                        <rect x="1082.31" y="1551.63" width="44.632" height="178.528" style="fill:white;"/>
                    </g>
                </g>
                <g id="stalk2" transform="matrix(0.707107,0.506867,-0.986452,0.707107,1642.13,-208.406)">
                    <g transform="matrix(1,0,0,0.716818,0,0)">
                        <path d="M1126.94,1551.63L1082.31,1551.63C1090.69,1612.49 1091.2,1672.08 1082.31,1730.16L1126.94,1730.16C1119.16,1671.3 1118.95,1611.8 1126.94,1551.63Z" style="fill:white;stroke:black;stroke-width:5.35px;"/>
                    </g>
                    <g transform="matrix(1.734,0,0,0.207374,-811.579,887.384)">
                        <rect x="1082.31" y="1551.63" width="44.632" height="178.528" style="fill:white;"/>
                    </g>
                    <g transform="matrix(2.16791,0,0,0.222848,-1287.03,747.532)">
                        <rect x="1082.31" y="1551.63" width="44.632" height="178.528" style="fill:white;"/>
                    </g>
                </g>
                <g id="stalk3" transform="matrix(-0.707107,-0.506867,0.986452,-0.707107,605.495,2723.08)">
                    <g transform="matrix(1,0,0,0.716818,0,0)">
                        <path d="M1126.94,1551.63L1082.31,1551.63C1090.69,1612.49 1091.2,1672.08 1082.31,1730.16L1126.94,1730.16C1119.16,1671.3 1118.95,1611.8 1126.94,1551.63Z" style="fill:white;stroke:black;stroke-width:5.35px;"/>
                    </g>
                    <g transform="matrix(1.734,0,0,0.207374,-811.579,887.384)">
                        <rect x="1082.31" y="1551.63" width="44.632" height="178.528" style="fill:white;"/>
                    </g>
                    <g transform="matrix(2.16791,0,0,0.222848,-1287.03,747.532)">
                        <rect x="1082.31" y="1551.63" width="44.632" height="178.528" style="fill:white;"/>
                    </g>
                </g>
                <g transform="matrix(0.417136,0,-5.55112e-17,0.29901,718.752,956.136)">
                    <path d="M936.703,794.344C941.523,784.705 951.375,778.616 962.152,778.616C972.929,778.616 982.781,784.705 987.601,794.344C1029.12,877.376 1110.94,1041.02 1152.44,1124.02C1157.89,1134.91 1157.3,1147.85 1150.9,1158.21C1144.5,1168.57 1133.19,1174.87 1121.01,1174.87C1036.43,1174.87 878.745,1174.87 797.594,1174.87C786.637,1174.87 776.461,1169.2 770.701,1159.88C764.94,1150.56 764.417,1138.92 769.317,1129.12C809.928,1047.89 894.32,879.11 936.703,794.344Z" style="fill:white;stroke:black;stroke-width:20.74px;"/>
                </g>
                <g transform="matrix(0.417136,0,-5.55112e-17,0.29901,720.024,956.136)">
                    <text x="878.743px" y="1146.11px" style="font-family:'Calibri', sans-serif;font-size:444.354px;">!</text>
                </g>
            </g>
            <g id="Damage4" transform="matrix(1,0,0,1,0,-27.7717)">
                <g transform="matrix(0.957964,-0.205646,0.286887,0.686686,-662.877,304.322)">
                    <path d="M1117.29,2216.65L1156.32,2345.47L1231.52,2305.66L1219.46,2394.68L1345.74,2394.68L1243.58,2474.29L1302.11,2538.7L1219.46,2553.91L1258.48,2682.73L1156.32,2603.11L1117.29,2682.73L1078.27,2603.11L976.102,2682.73L1015.13,2553.91L932.472,2538.7L991.007,2474.29L888.841,2394.68L1015.13,2394.68L1003.07,2305.66L1078.27,2345.47L1117.29,2216.65Z" style="fill:white;"/>
                </g>
                <g transform="matrix(0.486198,0.106674,-0.142247,0.333132,926.028,830.167)">
                    <path d="M1117.29,2216.65L1156.32,2345.47L1231.52,2305.66L1219.46,2394.68L1345.74,2394.68L1243.58,2474.29L1302.11,2538.7L1219.46,2553.91L1258.48,2682.73L1156.32,2603.11L1117.29,2682.73L1078.27,2603.11L976.102,2682.73L1015.13,2553.91L932.472,2538.7L991.007,2474.29L888.841,2394.68L1015.13,2394.68L1003.07,2305.66L1078.27,2345.47L1117.29,2216.65Z"/>
                </g>
                <g transform="matrix(0.417136,9.94785e-18,-4.16334e-17,0.29901,711.003,1467.14)">
                    <path d="M936.703,794.344C941.523,784.705 951.375,778.616 962.152,778.616C972.929,778.616 982.781,784.705 987.601,794.344C1029.12,877.376 1110.94,1041.02 1152.44,1124.02C1157.89,1134.91 1157.3,1147.85 1150.9,1158.21C1144.5,1168.57 1133.19,1174.87 1121.01,1174.87C1036.43,1174.87 878.745,1174.87 797.594,1174.87C786.637,1174.87 776.461,1169.2 770.701,1159.88C764.94,1150.56 764.417,1138.92 769.317,1129.12C809.928,1047.89 894.32,879.11 936.703,794.344Z" style="fill:white;stroke:black;stroke-width:20.74px;"/>
                </g>
                <g transform="matrix(0.417136,9.94785e-18,-4.16334e-17,0.29901,712.275,1467.14)">
                    <text x="878.743px" y="1146.11px" style="font-family:'Calibri', sans-serif;font-size:444.354px;">!</text>
                </g>
            </g>
            <g id="Armor-Penetration1" transform="matrix(1,0,0,0.429119,89.109,-977.564)">
                <g transform="matrix(0.979835,0,0,1.67044,-54.0008,2213.35)">
                    <ellipse cx="1741.06" cy="360.86" rx="201.464" ry="189.841" style="fill:white;"/>
                </g>
                <g transform="matrix(2.07587,0,0,3.46762,-1673.97,-3056.74)">
                    <path d="M1601.2,1660.76C1619.58,1660.76 1634.5,1675.68 1634.5,1694.06C1634.5,1712.44 1619.58,1727.36 1601.2,1727.36C1582.82,1727.36 1567.9,1712.44 1567.9,1694.06C1567.9,1675.68 1582.82,1660.76 1601.2,1660.76ZM1601.2,1669.09C1614.98,1669.09 1626.17,1680.28 1626.17,1694.06C1626.17,1707.85 1614.98,1719.04 1601.2,1719.04C1587.42,1719.04 1576.23,1707.85 1576.23,1694.06C1576.23,1680.28 1587.42,1669.09 1601.2,1669.09Z"/>
                </g>
                <g transform="matrix(3.4859,0,0,5.82299,-3931.7,-7046.87)">
                    <path d="M1601.2,1660.76C1619.58,1660.76 1634.5,1675.68 1634.5,1694.06C1634.5,1712.44 1619.58,1727.36 1601.2,1727.36C1582.82,1727.36 1567.9,1712.44 1567.9,1694.06C1567.9,1675.68 1582.82,1660.76 1601.2,1660.76ZM1601.2,1666.02C1616.68,1666.02 1629.25,1678.58 1629.25,1694.06C1629.25,1709.54 1616.68,1722.11 1601.2,1722.11C1585.72,1722.11 1573.16,1709.54 1573.16,1694.06C1573.16,1678.58 1585.72,1666.02 1601.2,1666.02Z"/>
                </g>
                <g transform="matrix(5.07218,0,0,8.47277,-6471.66,-11535.8)">
                    <path d="M1601.2,1660.76C1619.58,1660.76 1634.5,1675.68 1634.5,1694.06C1634.5,1712.44 1619.58,1727.36 1601.2,1727.36C1582.82,1727.36 1567.9,1712.44 1567.9,1694.06C1567.9,1675.68 1582.82,1660.76 1601.2,1660.76ZM1601.2,1664.97C1617.26,1664.97 1630.29,1678.01 1630.29,1694.06C1630.29,1710.12 1617.26,1723.15 1601.2,1723.15C1585.14,1723.15 1572.11,1710.12 1572.11,1694.06C1572.11,1678.01 1585.14,1664.97 1601.2,1664.97Z"/>
                </g>
                <g transform="matrix(1.46786,2.45198,-1.46786,2.45198,1903.78,-5447.43)">
                    <path d="M1602.46,1600.44L1594.92,1600.44L1594.92,1606.36L1578.26,1590.06L1578.85,1640L1595.5,1658.65L1594.92,1771.34L1602.46,1771.34L1603.04,1658.59L1618.88,1638.77L1618.3,1590.21L1602.46,1606.41L1602.46,1600.44Z" style="stroke:white;stroke-width:3.26px;"/>
                </g>
                <g transform="matrix(2.07587,0,0,3.46762,-1674.62,-3056.74)">
                    <circle cx="1601.51" cy="1693.75" r="12.88"/>
                </g>
            </g>
            <g id="Armor-Penetration3" transform="matrix(1,0,0,0.429119,49.4361,14.2187)">
                <g transform="matrix(-1.46786,-2.45198,0.660874,-1.10395,2741.48,8831.94)">
                    <path d="M1596.36,1552.29L1578.85,1640L1595.5,1658.65L1594.87,1773.92L1602.41,1782.17L1603.04,1658.59L1618.88,1638.77L1596.36,1552.29Z" style="stroke:white;stroke-width:4.2px;"/>
                </g>
                <g transform="matrix(0.979835,0,0,1.67044,-54.0008,2213.35)">
                    <ellipse cx="1741.06" cy="360.86" rx="201.464" ry="189.841" style="fill:white;"/>
                </g>
                <g transform="matrix(2.07587,0,0,3.46762,-1673.97,-3056.74)">
                    <path d="M1601.2,1660.76C1619.58,1660.76 1634.5,1675.68 1634.5,1694.06C1634.5,1712.44 1619.58,1727.36 1601.2,1727.36C1582.82,1727.36 1567.9,1712.44 1567.9,1694.06C1567.9,1675.68 1582.82,1660.76 1601.2,1660.76ZM1601.2,1669.09C1614.98,1669.09 1626.17,1680.28 1626.17,1694.06C1626.17,1707.85 1614.98,1719.04 1601.2,1719.04C1587.42,1719.04 1576.23,1707.85 1576.23,1694.06C1576.23,1680.28 1587.42,1669.09 1601.2,1669.09Z"/>
                </g>
                <g transform="matrix(3.4859,0,0,5.82299,-3931.7,-7046.87)">
                    <path d="M1601.2,1660.76C1619.58,1660.76 1634.5,1675.68 1634.5,1694.06C1634.5,1712.44 1619.58,1727.36 1601.2,1727.36C1582.82,1727.36 1567.9,1712.44 1567.9,1694.06C1567.9,1675.68 1582.82,1660.76 1601.2,1660.76ZM1601.2,1666.02C1616.68,1666.02 1629.25,1678.58 1629.25,1694.06C1629.25,1709.54 1616.68,1722.11 1601.2,1722.11C1585.72,1722.11 1573.16,1709.54 1573.16,1694.06C1573.16,1678.58 1585.72,1666.02 1601.2,1666.02Z"/>
                </g>
                <g transform="matrix(5.07218,0,0,8.47277,-6471.66,-11535.8)">
                    <path d="M1601.2,1660.76C1619.58,1660.76 1634.5,1675.68 1634.5,1694.06C1634.5,1712.44 1619.58,1727.36 1601.2,1727.36C1582.82,1727.36 1567.9,1712.44 1567.9,1694.06C1567.9,1675.68 1582.82,1660.76 1601.2,1660.76ZM1601.2,1664.97C1617.26,1664.97 1630.29,1678.01 1630.29,1694.06C1630.29,1710.12 1617.26,1723.15 1601.2,1723.15C1585.14,1723.15 1572.11,1710.12 1572.11,1694.06C1572.11,1678.01 1585.14,1664.97 1601.2,1664.97Z"/>
                </g>
                <g transform="matrix(1.46786,2.45198,-1.46786,2.45198,1903.78,-5447.43)">
                    <path d="M1602.46,1600.44L1594.92,1600.44L1594.92,1606.36L1578.26,1590.06L1578.85,1640L1595.5,1658.65L1594.92,1771.34L1602.46,1771.34L1603.04,1658.59L1618.88,1638.77L1618.3,1590.21L1602.46,1606.41L1602.46,1600.44Z" style="stroke:white;stroke-width:3.26px;"/>
                </g>
                <g transform="matrix(2.07587,0,0,3.46762,-1674.62,-3056.74)">
                    <circle cx="1601.51" cy="1693.75" r="12.88"/>
                </g>
            </g>
            <g id="Armor-Penetration2" transform="matrix(1,0,0,0.429119,37.0384,-501.224)">
                <g transform="matrix(0.425989,0,0,1.67044,907.796,2213.35)">
                    <path d="M1741.06,171.019C1852.25,171.019 1942.52,256.084 1942.52,360.86C1942.52,465.636 1852.25,550.701 1741.06,550.701C1734.74,550.701 1629.3,550.426 1623.13,549.889C1520.71,540.968 1440.41,459.681 1440.41,360.86C1440.41,262.64 1519.74,181.741 1621.27,172.002C1628.04,171.352 1734.1,171.019 1741.06,171.019Z" style="fill:none;stroke:white;stroke-width:6.96px;"/>
                </g>
                <g transform="matrix(0.425989,0,0,1.67044,907.796,2213.35)">
                    <ellipse cx="1741.06" cy="360.86" rx="201.464" ry="189.841" style="fill:white;"/>
                </g>
                <g transform="matrix(0.902498,0,0,3.46762,203.507,-3056.74)">
                    <path d="M1601.2,1660.76C1619.58,1660.76 1634.5,1675.68 1634.5,1694.06C1634.5,1712.44 1619.58,1727.36 1601.2,1727.36C1582.82,1727.36 1567.9,1712.44 1567.9,1694.06C1567.9,1675.68 1582.82,1660.76 1601.2,1660.76ZM1601.2,1669.09C1614.98,1669.09 1626.17,1680.28 1626.17,1694.06C1626.17,1707.85 1614.98,1719.04 1601.2,1719.04C1587.42,1719.04 1576.23,1707.85 1576.23,1694.06C1576.23,1680.28 1587.42,1669.09 1601.2,1669.09Z"/>
                </g>
                <g transform="matrix(1.51552,0,0,5.82299,-778.057,-7046.87)">
                    <path d="M1601.2,1660.76C1619.58,1660.76 1634.5,1675.68 1634.5,1694.06C1634.5,1712.44 1619.58,1727.36 1601.2,1727.36C1582.82,1727.36 1567.9,1712.44 1567.9,1694.06C1567.9,1675.68 1582.82,1660.76 1601.2,1660.76ZM1601.2,1666.02C1616.68,1666.02 1629.25,1678.58 1629.25,1694.06C1629.25,1709.54 1616.68,1722.11 1601.2,1722.11C1585.72,1722.11 1573.16,1709.54 1573.16,1694.06C1573.16,1678.58 1585.72,1666.02 1601.2,1666.02Z"/>
                </g>
                <g transform="matrix(2.20516,0,0,8.47277,-1882.32,-11535.8)">
                    <path d="M1601.2,1660.76C1619.58,1660.76 1634.5,1675.68 1634.5,1694.06C1634.5,1712.44 1619.58,1727.36 1601.2,1727.36C1582.82,1727.36 1567.9,1712.44 1567.9,1694.06C1567.9,1675.68 1582.82,1660.76 1601.2,1660.76ZM1601.2,1664.97C1617.26,1664.97 1630.29,1678.01 1630.29,1694.06C1630.29,1710.12 1617.26,1723.15 1601.2,1723.15C1585.14,1723.15 1572.11,1710.12 1572.11,1694.06C1572.11,1678.01 1585.14,1664.97 1601.2,1664.97Z"/>
                </g>
                <g transform="matrix(1.46786,2.45198,-1.46786,2.45198,1903.78,-5447.43)">
                    <path d="M1602.46,1600.44L1594.92,1600.44L1594.92,1606.36L1578.26,1590.06L1578.85,1640L1595.5,1658.65L1594.92,1771.34L1602.46,1771.34L1603.04,1658.59L1618.88,1638.77L1618.3,1590.21L1602.46,1606.41L1602.46,1600.44Z" style="stroke:white;stroke-width:3.26px;"/>
                </g>
                <g transform="matrix(-1.46786,-2.45198,0.660874,-1.10395,2709.03,8886.09)">
                    <path d="M1596.36,1552.29L1578.85,1640L1595.5,1658.65L1594.87,1773.92L1602.41,1782.17L1603.04,1658.59L1618.88,1638.77L1596.36,1552.29Z" style="stroke:white;stroke-width:4.2px;"/>
                </g>
                <g transform="matrix(0.902498,0,0,3.46762,203.223,-3056.74)">
                    <circle cx="1601.51" cy="1693.75" r="12.88"/>
                </g>
            </g>
            <g id="Armor-Penetration4" transform="matrix(1,0,0,0.429119,27.74,456.344)">
                <g transform="matrix(-1.46786,-2.45198,0.673598,-1.12521,2753.3,8812.13)">
                    <path d="M1596.36,1552.29L1578.85,1640L1595.5,1658.65L1594.87,1773.92L1602.41,1782.17L1603.04,1658.59L1618.88,1638.77L1596.36,1552.29Z" style="stroke:white;stroke-width:4.19px;"/>
                </g>
                <g transform="matrix(0.425989,0,0,1.67044,907.796,2213.35)">
                    <ellipse cx="1741.06" cy="360.86" rx="201.464" ry="189.841" style="fill:white;"/>
                </g>
                <g transform="matrix(1.46786,2.45198,-1.3603,2.2723,1701.54,-5109.61)">
                    <path d="M1602.46,1600.44L1594.92,1600.44L1594.92,1606.36L1578.26,1590.06L1578.85,1640L1595.5,1658.65L1594.92,1771.34L1602.46,1771.34L1603.04,1658.59L1618.88,1638.77L1618.3,1590.21L1602.46,1606.41L1602.46,1600.44Z" style="stroke:white;stroke-width:3.38px;"/>
                </g>
                <g transform="matrix(0.902498,0,0,3.46762,203.223,-3056.74)">
                    <circle cx="1601.51" cy="1693.75" r="12.88"/>
                </g>
            </g>
            <g transform="matrix(1,0,0,0.716818,261.391,436.05)">
                <text x="29.808px" y="2190.24px" style="font-family:'Calibri', sans-serif;font-size:123.333px;fill:white;">Stun</text>
            </g>
            <g transform="matrix(0.601989,0,0,0.431517,546.155,1038.72)">
                <text x="763.827px" y="2145.3px" style="font-family:'Calibri', sans-serif;font-size:123.333px;fill:white;">Damag<tspan x="1113.41px " y="2145.3px ">e</tspan></text>
                <text x="763.827px" y="2295.85px" style="font-family:'Calibri', sans-serif;font-size:123.333px;fill:white;">Boos<tspan x="1007.84px " y="2295.85px ">t</tspan></text>
            </g>
            <g transform="matrix(0.703562,0,0,0.504326,464.559,880.145)">
                <text x="1443.92px" y="2112.35px" style="font-family:'Calibri', sans-serif;font-size:123.333px;fill:white;">Armor</text>
                <path d="M1888.11,2205.63C1889.31,2205.63 1890.14,2205.9 1890.58,2206.44C1891.02,2206.98 1891.24,2207.78 1891.24,2208.82L1891.24,2261.39C1891.24,2261.71 1891.16,2261.98 1891,2262.2C1890.84,2262.43 1890.57,2262.62 1890.19,2262.78C1889.81,2262.94 1889.29,2263.06 1888.65,2263.14C1888.01,2263.22 1887.23,2263.26 1886.3,2263.26C1885.3,2263.26 1884.48,2263.22 1883.83,2263.14C1883.19,2263.06 1882.68,2262.94 1882.3,2262.78C1881.92,2262.62 1881.64,2262.43 1881.48,2262.2C1881.32,2261.98 1881.24,2261.71 1881.24,2261.39L1881.24,2213.88L1853.24,2213.88L1853.24,2244.11C1853.24,2247.84 1853.79,2250.66 1854.9,2252.57C1856,2254.48 1857.98,2255.43 1860.83,2255.43C1861.75,2255.43 1862.58,2255.34 1863.3,2255.16C1864.02,2254.98 1864.66,2254.79 1865.22,2254.59C1865.79,2254.39 1866.27,2254.2 1866.67,2254.01C1867.07,2253.83 1867.43,2253.74 1867.75,2253.74C1867.95,2253.74 1868.14,2253.79 1868.33,2253.89C1868.51,2253.99 1868.65,2254.18 1868.75,2254.47C1868.85,2254.75 1868.94,2255.13 1869.02,2255.61C1869.1,2256.09 1869.14,2256.69 1869.14,2257.42C1869.14,2258.58 1869.06,2259.49 1868.9,2260.16C1868.74,2260.82 1868.5,2261.32 1868.17,2261.66C1867.85,2262 1867.37,2262.32 1866.73,2262.6C1866.09,2262.88 1865.36,2263.11 1864.53,2263.29C1863.71,2263.47 1862.84,2263.62 1861.91,2263.74C1860.99,2263.86 1860.07,2263.92 1859.14,2263.92C1856.33,2263.92 1853.92,2263.55 1851.92,2262.81C1849.91,2262.06 1848.26,2260.94 1846.98,2259.43C1845.69,2257.93 1844.76,2256.02 1844.18,2253.71C1843.6,2251.41 1843.3,2248.68 1843.3,2245.55L1843.3,2213.88L1835.72,2213.88C1835.11,2213.88 1834.63,2213.56 1834.27,2212.91C1833.91,2212.27 1833.73,2211.23 1833.73,2209.78C1833.73,2209.02 1833.78,2208.38 1833.88,2207.86C1833.98,2207.33 1834.11,2206.9 1834.27,2206.56C1834.43,2206.22 1834.64,2205.98 1834.9,2205.84C1835.16,2205.7 1835.45,2205.63 1835.78,2205.63L1843.3,2205.63L1843.3,2192.74C1843.3,2192.46 1843.37,2192.2 1843.52,2191.96C1843.65,2191.72 1843.92,2191.51 1844.3,2191.33C1844.68,2191.14 1845.19,2191.01 1845.83,2190.93C1846.48,2190.85 1847.28,2190.81 1848.24,2190.81C1849.25,2190.81 1850.07,2190.85 1850.71,2190.93C1851.35,2191.01 1851.86,2191.14 1852.22,2191.33C1852.58,2191.51 1852.84,2191.72 1853,2191.96C1853.16,2192.2 1853.24,2192.46 1853.24,2192.74L1853.24,2205.63L1888.11,2205.63ZM1892.38,2188.89C1892.38,2191.21 1891.94,2192.8 1891.06,2193.64C1890.18,2194.49 1888.55,2194.91 1886.18,2194.91C1883.85,2194.91 1882.26,2194.5 1881.39,2193.67C1880.53,2192.85 1880.1,2191.29 1880.1,2189.01C1880.1,2186.68 1880.54,2185.09 1881.42,2184.25C1882.31,2183.41 1883.93,2182.98 1886.3,2182.98C1888.63,2182.98 1890.23,2183.39 1891.09,2184.22C1891.95,2185.04 1892.38,2186.6 1892.38,2188.89Z" style="fill:white;"/>
                <text x="1443.92px" y="2262.9px" style="font-family:'Calibri', sans-serif;font-size:123.333px;fill:white;">P<tspan x="1505.16px 1566.53px 1631.33px 1692.03px 1733.34px 1773.81px 1900.45px " y="2262.9px 2262.9px 2262.9px 2262.9px 2262.9px 2262.9px 2262.9px ">enetrao</tspan>n</text>
            </g>
        </g>
    </g>
</svg>
